<svg width="652" height="148" viewBox="0 0 652 148" fill="none" xmlns="http://www.w3.org/2000/svg">
    <path
        d="M2.59684 73.0772C1.92918 65.9286 7.18292 59.5913 14.3314 58.9223L629.05 1.39916C636.198 0.730236 642.534 5.98304 643.202 13.1316L648.911 74.2594C649.579 81.408 644.325 87.7454 637.177 88.4143L22.4583 145.937C15.3098 146.606 8.97363 141.354 8.30598 134.205L2.59684 73.0772Z"
        fill="#DEE1E6" />
    <path
        d="M25.9976 75.9094C26.128 77.3058 25.105 78.5398 23.7086 78.6705C22.3122 78.8012 21.0784 77.7783 20.948 76.3819C20.8175 74.9855 21.8406 73.7515 23.237 73.6208C24.6334 73.4901 25.8672 74.513 25.9976 75.9094Z"
        stroke="black" stroke-width="1.5" stroke-linecap="round" stroke-linejoin="round" />
    <path
        d="M24.0174 81.9781C26.5069 81.7452 28.6902 80.0611 30.0681 77.371C30.61 76.3172 30.4539 74.6457 29.7262 73.7107C27.8741 71.3229 25.4168 70.0731 22.9273 70.306C20.4377 70.539 18.2544 72.2231 16.8766 74.9131C16.3347 75.967 16.4908 77.6384 17.2184 78.5735C19.0706 80.9613 21.5279 82.2111 24.0174 81.9781Z"
        stroke="black" stroke-width="1.5" stroke-linecap="round" stroke-linejoin="round" />
    <path
        d="M43.4185 79.301L42.7094 71.708L39.7762 71.9825L39.6819 70.9729L46.6116 70.3244L46.7059 71.334L43.7727 71.6085L44.4819 79.2015L43.4185 79.301ZM49.3769 78.9242C48.895 78.9693 48.4826 78.9195 48.1396 78.7748C47.8003 78.6258 47.5334 78.4137 47.339 78.1386C47.1486 77.8632 47.0372 77.5522 47.0048 77.2057C46.9732 76.8672 47.0096 76.5685 47.114 76.3096C47.2219 76.0464 47.3858 75.8222 47.6055 75.6369C47.8249 75.4477 48.0934 75.29 48.411 75.1638C48.7099 75.0515 49.0457 74.9477 49.4184 74.8526C49.7948 74.7531 50.1757 74.6592 50.5612 74.5709C50.9467 74.4826 51.3064 74.3987 51.6405 74.3193L51.2788 74.5761C51.2372 74.0014 51.0821 73.5881 50.8135 73.336C50.5488 73.0836 50.1218 72.9849 49.5324 73.0401C49.1421 73.0766 48.808 73.1983 48.53 73.4051C48.2556 73.6075 48.0773 73.9135 47.995 74.3229L46.957 74.1127C47.0595 73.5326 47.3187 73.0604 47.7346 72.6961C48.1505 72.3318 48.7229 72.1155 49.4517 72.0473C50.0372 71.9925 50.5488 72.0511 50.9867 72.223C51.4282 72.3906 51.7603 72.6769 51.9829 73.082C52.0931 73.2725 52.1711 73.4842 52.217 73.7169C52.2624 73.9457 52.2971 74.1875 52.3209 74.4424L52.6936 78.433L51.7497 78.5214L51.6052 76.9741L51.8396 77.0968C51.6454 77.6412 51.3417 78.0674 50.9286 78.3752C50.5194 78.6827 50.0022 78.8657 49.3769 78.9242ZM49.455 78.019C49.8374 77.9832 50.1616 77.8845 50.4277 77.723C50.6975 77.5572 50.9076 77.3547 51.058 77.1157C51.208 76.8727 51.2965 76.6153 51.3233 76.3436C51.3645 76.1389 51.3757 75.9149 51.357 75.6715C51.3419 75.4239 51.3282 75.2343 51.3159 75.1029L51.7014 75.2295C51.3594 75.3098 51.0231 75.3874 50.6927 75.4625C50.3622 75.5376 50.0501 75.6151 49.7562 75.6948C49.462 75.7705 49.1986 75.8534 48.9659 75.9435C48.7959 76.0157 48.6373 76.1028 48.4902 76.205C48.347 76.3067 48.2342 76.4318 48.1516 76.5801C48.0726 76.7241 48.0427 76.8977 48.0616 77.1008C48.078 77.276 48.1374 77.4392 48.2399 77.5903C48.3464 77.741 48.4979 77.8574 48.6944 77.9395C48.8948 78.0212 49.1484 78.0477 49.455 78.019ZM57.2266 78.1896C56.6212 78.2463 56.0975 78.1446 55.6554 77.8847C55.213 77.6208 54.8602 77.242 54.5972 76.7483C54.3377 76.2504 54.1781 75.6807 54.1182 75.0395C54.0576 74.3904 54.1088 73.799 54.2719 73.2655C54.439 72.7316 54.7158 72.2979 55.1025 71.9645C55.4931 71.6306 55.9911 71.4354 56.5965 71.3787C57.1939 71.3228 57.7216 71.4241 58.1796 71.6825C58.6412 71.9366 59.0115 72.3098 59.2905 72.8019C59.5695 73.2941 59.7391 73.8627 59.7994 74.5079C59.8596 75.1531 59.7983 75.7434 59.6153 76.2788C59.4322 76.8142 59.1378 77.2535 58.732 77.5968C58.3298 77.9357 57.828 78.1334 57.2266 78.1896ZM54.2408 78.2882L53.4374 69.6857L54.5067 69.5856L54.8666 73.4389L54.7471 73.45L55.1907 78.1994L54.2408 78.2882ZM57.0042 77.2282C57.4304 77.1883 57.7728 77.0478 58.0315 76.8066C58.2902 76.5655 58.4721 76.2552 58.5773 75.8757C58.6821 75.4923 58.7131 75.0716 58.6703 74.6136C58.6279 74.1595 58.5199 73.7559 58.3463 73.4025C58.1767 73.0488 57.9384 72.7778 57.6316 72.5895C57.3287 72.4009 56.9583 72.3271 56.5202 72.3681C56.102 72.4073 55.7652 72.5432 55.5097 72.776C55.2539 73.0049 55.0754 73.3088 54.9742 73.6879C54.8727 74.063 54.8442 74.4895 54.8888 74.9674C54.9327 75.4374 55.0377 75.8514 55.2037 76.2095C55.3733 76.5632 55.6074 76.8326 55.9059 77.0176C56.204 77.1986 56.5701 77.2688 57.0042 77.2282ZM65.3022 77.2532L64.6086 69.8275L63.0812 70.9587L62.9702 69.7699L64.4987 68.6506L65.58 68.5494L66.3834 77.152L65.3022 77.2532Z"
        fill="black" />
    <g clip-path="url(#clip0_811_3269)">
        <path
            d="M90.3873 69.884L93.2276 66.4582C93.4039 66.2456 93.3745 65.9303 93.1618 65.754C92.9492 65.5777 92.6339 65.6072 92.4576 65.8199L89.6177 69.2459L86.1926 66.4062C85.9799 66.2299 85.6646 66.2594 85.4883 66.4721C85.312 66.6847 85.3415 67 85.5541 67.1763L88.9795 70.0157L86.1393 73.4414C85.9629 73.6541 85.9924 73.9694 86.205 74.1457C86.4177 74.3219 86.733 74.2924 86.9092 74.0798L89.7492 70.6537L93.1743 73.4935C93.3869 73.6698 93.7022 73.6403 93.8785 73.4276C94.0548 73.2149 94.0254 72.8996 93.8127 72.7234L90.3873 69.884Z"
            fill="#272727" />
    </g>
    <path fill-rule="evenodd" clip-rule="evenodd"
        d="M107.288 86.3811L115.253 85.6358L114.509 77.6704C114.92 82.0684 111.687 85.9676 107.288 86.3811Z"
        fill="white" />
    <path
        d="M112.649 57.7571C112.238 53.3579 115.471 49.458 119.87 49.0464L216.448 40.009C220.847 39.5973 224.747 42.8298 225.157 47.2289L227.761 75.1076L115.253 85.6358L112.649 57.7571Z"
        fill="white" />
    <path
        d="M154.789 69.0601C154.179 69.1171 153.62 69.065 153.111 68.9038C152.606 68.7421 152.176 68.485 151.822 68.1325C151.471 67.7756 151.223 67.3388 151.079 66.8221L152.162 66.546C152.352 67.0746 152.68 67.4717 153.147 67.7374C153.617 67.9987 154.151 68.1014 154.748 68.0455C155.135 68.0093 155.477 67.917 155.777 67.7684C156.08 67.6155 156.313 67.417 156.475 67.1728C156.637 66.9287 156.703 66.6513 156.674 66.3406C156.656 66.1495 156.607 65.9893 156.527 65.8603C156.45 65.7268 156.349 65.6177 156.225 65.533C156.104 65.4438 155.969 65.3721 155.819 65.3178C155.669 65.2635 155.515 65.2218 155.356 65.1925L153.102 64.7465C152.857 64.6972 152.617 64.6292 152.384 64.5425C152.151 64.4518 151.939 64.3331 151.748 64.1862C151.557 64.0353 151.399 63.8492 151.274 63.6279C151.149 63.4026 151.071 63.1307 151.041 62.8121C150.994 62.3023 151.085 61.8559 151.314 61.4728C151.547 61.0854 151.882 60.7749 152.318 60.5413C152.754 60.3076 153.257 60.1661 153.827 60.1168C154.405 60.0668 154.93 60.1221 155.403 60.2827C155.88 60.439 156.285 60.6903 156.619 61.0367C156.956 61.3828 157.201 61.8118 157.353 62.3239L156.243 62.6267C156.15 62.2818 155.989 61.9936 155.758 61.762C155.531 61.5262 155.258 61.3549 154.939 61.2481C154.619 61.1374 154.276 61.0972 153.909 61.1276C153.558 61.1564 153.247 61.2418 152.975 61.3837C152.703 61.5257 152.493 61.708 152.345 61.9308C152.197 62.1495 152.135 62.3923 152.16 62.6592C152.185 62.922 152.28 63.128 152.447 63.2772C152.613 63.4223 152.81 63.5324 153.038 63.6075C153.27 63.6782 153.494 63.7336 153.71 63.7736L155.391 64.0924C155.583 64.1266 155.805 64.1782 156.057 64.2471C156.312 64.3155 156.563 64.4226 156.81 64.5683C157.056 64.71 157.268 64.9111 157.445 65.1718C157.621 65.4284 157.729 65.7638 157.768 66.178C157.806 66.5922 157.757 66.9685 157.62 67.3067C157.487 67.6446 157.283 67.9368 157.009 68.1835C156.734 68.4261 156.407 68.6214 156.027 68.7695C155.648 68.9215 155.235 69.0184 154.789 69.0601ZM162.01 68.3844C161.369 68.4444 160.801 68.3508 160.308 68.1037C159.819 67.8562 159.425 67.4873 159.126 66.997C158.827 66.5067 158.647 65.929 158.585 65.2639C158.522 64.5869 158.594 63.9815 158.801 63.4479C159.008 62.9143 159.331 62.4843 159.771 62.1579C160.21 61.8275 160.744 61.6329 161.374 61.574C162.019 61.5137 162.588 61.607 163.081 61.8542C163.574 62.0973 163.968 62.4642 164.263 62.9549C164.561 63.4412 164.741 64.0169 164.804 64.682C164.866 65.3551 164.796 65.9602 164.593 66.4975C164.39 67.0307 164.069 67.4645 163.63 67.7989C163.191 68.1292 162.651 68.3244 162.01 68.3844ZM161.915 67.3748C162.585 67.3122 163.062 67.0426 163.346 66.5659C163.631 66.0893 163.741 65.4966 163.675 64.7876C163.606 64.0588 163.387 63.4948 163.016 63.0956C162.645 62.6924 162.129 62.5218 161.468 62.5836C161.018 62.6258 160.657 62.762 160.385 62.9923C160.114 63.2226 159.923 63.5237 159.813 63.8956C159.703 64.2674 159.67 64.6883 159.714 65.1583C159.782 65.8831 160.003 66.4489 160.379 66.8557C160.754 67.2625 161.266 67.4355 161.915 67.3748ZM169.156 67.7157C168.502 67.7768 167.933 67.6835 167.448 67.4356C166.967 67.1833 166.582 66.8115 166.295 66.3201C166.008 65.8287 165.83 65.2548 165.761 64.5984C165.706 63.9246 165.776 63.3214 165.972 62.7889C166.171 62.2521 166.486 61.8188 166.917 61.4892C167.348 61.1596 167.886 60.9646 168.531 60.9042C169.212 60.8405 169.814 60.953 170.335 61.2417C170.86 61.53 171.233 61.9571 171.455 62.5229L170.433 62.9379C170.262 62.5762 170.014 62.3062 169.688 62.1278C169.366 61.949 169.008 61.8781 168.614 61.915C168.172 61.9563 167.817 62.094 167.55 62.3279C167.282 62.5579 167.095 62.8606 166.99 63.236C166.884 63.6075 166.851 64.0264 166.89 64.4928C166.965 65.2089 167.184 65.7729 167.548 66.1848C167.916 66.5923 168.42 66.7661 169.061 66.7061C169.483 66.6666 169.825 66.5382 170.086 66.321C170.346 66.0997 170.531 65.7992 170.64 65.4194L171.742 65.5995C171.575 66.2218 171.27 66.7144 170.825 67.0774C170.381 67.4403 169.825 67.6531 169.156 67.7157ZM172.353 59.5764L172.251 58.4772L173.314 58.3777L173.417 59.4769L172.353 59.5764ZM173.062 67.1693L172.46 60.7174L173.523 60.6179L174.126 67.0698L173.062 67.1693ZM178.813 69.7046C178.475 69.7362 178.14 69.7154 177.807 69.642C177.475 69.5687 177.164 69.4391 176.873 69.2534C176.587 69.0712 176.339 68.8293 176.13 68.5274L177.056 67.9225C177.245 68.2223 177.491 68.4302 177.795 68.5464C178.103 68.6622 178.413 68.7055 178.723 68.6765C179.134 68.6381 179.467 68.5305 179.724 68.3539C179.981 68.1812 180.159 67.9415 180.259 67.6348C180.363 67.3278 180.393 66.9555 180.348 66.5177L180.183 64.7554L180.309 64.7437L179.868 60.0242L180.812 59.9359L181.418 66.4296C181.435 66.6049 181.444 66.7747 181.448 66.9391C181.455 67.1031 181.45 67.2663 181.433 67.4286C181.392 67.8944 181.262 68.2862 181.043 68.6041C180.824 68.9259 180.526 69.1767 180.149 69.3566C179.772 69.5405 179.327 69.6565 178.813 69.7046ZM178.468 66.8443C177.867 66.9006 177.337 66.7995 176.879 66.541C176.42 66.2786 176.05 65.9015 175.767 65.4097C175.488 64.9176 175.318 64.3489 175.258 63.7037C175.198 63.0585 175.259 62.4682 175.442 61.9328C175.629 61.3971 175.924 60.9617 176.326 60.6268C176.729 60.2878 177.229 60.0904 177.826 60.0345C178.435 59.9775 178.961 60.0769 179.403 60.3329C179.844 60.5889 180.195 60.9638 180.454 61.4579C180.717 61.9515 180.879 62.5229 180.939 63.1721C180.999 63.8133 180.946 64.4028 180.779 64.9407C180.616 65.4742 180.341 65.9117 179.955 66.2531C179.569 66.5906 179.073 66.7877 178.468 66.8443ZM178.508 65.8582C178.943 65.8176 179.289 65.6807 179.549 65.4475C179.808 65.2104 179.986 64.9024 180.083 64.5237C180.184 64.1407 180.212 63.7141 180.169 63.2442C180.124 62.7663 180.017 62.3524 179.848 62.0027C179.682 61.6486 179.452 61.3828 179.159 61.2054C178.864 61.024 178.506 60.9531 178.084 60.9926C177.646 61.0336 177.294 61.175 177.027 61.4169C176.764 61.6585 176.58 61.969 176.475 62.3484C176.374 62.7275 176.345 63.144 176.387 63.5981C176.43 64.0561 176.538 64.4637 176.712 64.8211C176.886 65.1744 177.122 65.4456 177.421 65.6346C177.724 65.8232 178.086 65.8977 178.508 65.8582ZM184.246 69.0154L185.178 65.5053L185.289 66.5073L181.823 59.8413L182.94 59.7368L185.671 65.1037L185.288 65.1394L186.841 59.3717L187.922 59.2705L185.28 68.9187L184.246 69.0154ZM191.473 62.09L191.391 61.2118L194.975 60.8764L195.057 61.7545L191.473 62.09Z"
        fill="black" />
    <g clip-path="url(#clip1_811_3269)">
        <path
            d="M210.861 58.6104L213.701 55.1847C213.878 54.972 213.848 54.6567 213.635 54.4804C213.423 54.3042 213.108 54.3337 212.931 54.5463L210.091 57.9724L206.666 55.1326C206.454 54.9563 206.138 54.9858 205.962 55.1985C205.786 55.4112 205.815 55.7265 206.028 55.9027L209.453 58.7421L206.613 62.1679C206.437 62.3806 206.466 62.6959 206.679 62.8721C206.891 63.0484 207.207 63.0189 207.383 62.8062L210.223 59.3802L213.648 62.22C213.861 62.3962 214.176 62.3667 214.352 62.1541C214.528 61.9414 214.499 61.6261 214.286 61.4498L210.861 58.6104Z"
            fill="#1A1A1A" />
    </g>
    <path fill-rule="evenodd" clip-rule="evenodd"
        d="M235.727 74.3623L227.761 75.1077L227.017 67.1423C227.428 71.5403 231.327 74.7722 235.727 74.3623Z"
        fill="white" />
    <path
        d="M256.989 54.294C257.119 55.6904 256.096 56.9245 254.7 57.0551C253.303 57.1858 252.069 56.163 251.939 54.7665C251.809 53.3701 252.832 52.1361 254.228 52.0054C255.624 51.8748 256.858 52.8976 256.989 54.294Z"
        stroke="black" stroke-width="1.5" stroke-linecap="round" stroke-linejoin="round" />
    <path
        d="M255.008 60.3628C257.498 60.1298 259.681 58.4457 261.059 55.7557C261.601 54.7019 261.445 53.0304 260.717 52.0953C258.865 49.7075 256.408 48.4577 253.918 48.6907C251.429 48.9236 249.245 50.6077 247.868 53.2978C247.326 54.3516 247.482 56.0231 248.209 56.9581C250.062 59.3459 252.519 60.5957 255.008 60.3628Z"
        stroke="black" stroke-width="1.5" stroke-linecap="round" stroke-linejoin="round" />
    <path
        d="M271.596 57.9489L273.672 49.0769L275.153 48.9383L278.836 57.2714L277.731 57.3748L274.291 49.6456L274.626 49.6143L272.701 57.8455L271.596 57.9489ZM272.794 55.806L272.701 54.8083L277.169 54.3902L277.262 55.3878L272.794 55.806ZM282.885 57.0732C282.28 57.1299 281.756 57.0282 281.314 56.7683C280.872 56.5044 280.519 56.1256 280.256 55.632C279.997 55.134 279.837 54.5644 279.777 53.9231C279.716 53.274 279.768 52.6826 279.931 52.1491C280.098 51.6152 280.375 51.1815 280.761 50.8481C281.152 50.5142 281.65 50.319 282.255 50.2623C282.853 50.2064 283.38 50.3077 283.838 50.5661C284.3 50.8202 284.67 51.1934 284.949 51.6855C285.228 52.1777 285.398 52.7463 285.458 53.3915C285.518 54.0367 285.457 54.627 285.274 55.1624C285.091 55.6978 284.797 56.1371 284.391 56.4804C283.989 56.8194 283.487 57.017 282.885 57.0732ZM279.9 57.1719L279.096 48.5693L280.165 48.4692L280.525 52.3225L280.406 52.3336L280.849 57.083L279.9 57.1719ZM282.663 56.1118C283.089 56.0719 283.432 55.9314 283.69 55.6902C283.949 55.4491 284.131 55.1388 284.236 54.7593C284.341 54.3759 284.372 53.9552 284.329 53.4972C284.287 53.0432 284.179 52.6395 284.005 52.2861C283.835 51.9324 283.597 51.6614 283.29 51.4732C282.988 51.2845 282.617 51.2107 282.179 51.2517C281.761 51.2909 281.424 51.4268 281.169 51.6597C280.913 51.8885 280.734 52.1924 280.633 52.5715C280.531 52.9466 280.503 53.3731 280.548 53.851C280.592 54.321 280.696 54.735 280.862 55.0931C281.032 55.4468 281.266 55.7162 281.565 55.9012C281.863 56.0822 282.229 56.1524 282.663 56.1118Z"
        fill="black" />
    <rect width="1" height="17" rx="0.5"
        transform="matrix(0.99565 -0.0931695 0.0929921 0.995667 296.984 42.0142)" fill="#B5B5B5" />
    <path
        d="M321.706 48.238C321.836 49.6344 320.813 50.8684 319.417 50.9991C318.02 51.1298 316.787 50.1069 316.656 48.7105C316.526 47.3141 317.549 46.0801 318.945 45.9494C320.342 45.8187 321.575 46.8416 321.706 48.238Z"
        stroke="black" stroke-width="1.5" stroke-linecap="round" stroke-linejoin="round" />
    <path
        d="M319.726 54.3068C322.215 54.0738 324.398 52.3897 325.776 49.6996C326.318 48.6458 326.162 46.9743 325.435 46.0393C323.582 43.6515 321.125 42.4017 318.636 42.6346C316.146 42.8676 313.963 44.5517 312.585 47.2417C312.043 48.2956 312.199 49.967 312.927 50.9021C314.779 53.2899 317.236 54.5397 319.726 54.3068Z"
        stroke="black" stroke-width="1.5" stroke-linecap="round" stroke-linejoin="round" />
    <path
        d="M336.313 51.8929L338.389 43.0209L339.871 42.8822L343.553 51.2153L342.448 51.3188L339.009 43.5896L339.343 43.5583L337.418 51.7894L336.313 51.8929ZM337.511 49.7499L337.418 48.7523L341.886 48.3341L341.979 49.3318L337.511 49.7499ZM347.358 51.0401C346.705 51.1013 346.135 51.0079 345.65 50.76C345.169 50.5078 344.785 50.1359 344.498 49.6445C344.211 49.1531 344.032 48.5792 343.963 47.9228C343.908 47.249 343.978 46.6459 344.174 46.1133C344.373 45.5765 344.688 45.1432 345.119 44.8136C345.55 44.484 346.088 44.289 346.734 44.2287C347.415 44.1649 348.016 44.2774 348.537 44.5661C349.062 44.8545 349.435 45.2815 349.657 45.8473L348.635 46.2624C348.465 45.9007 348.216 45.6306 347.89 45.4522C347.568 45.2734 347.21 45.2025 346.816 45.2394C346.374 45.2807 346.019 45.4184 345.752 45.6523C345.484 45.8823 345.297 46.185 345.192 46.5604C345.086 46.9319 345.053 47.3508 345.092 47.8172C345.167 48.5333 345.387 49.0973 345.75 49.5092C346.118 49.9168 346.622 50.0905 347.263 50.0305C347.686 49.991 348.027 49.8626 348.288 49.6454C348.549 49.4241 348.733 49.1236 348.843 48.7438L349.944 48.924C349.777 49.5462 349.472 50.0388 349.028 50.4018C348.583 50.7647 348.027 50.9775 347.358 51.0401Z"
        fill="black" />
    <rect width="1" height="17" rx="0.5"
        transform="matrix(0.99565 -0.0931695 0.0929921 0.995667 361.701 35.9583)" fill="#B5B5B5" />
    <path
        d="M386.423 42.1821C386.554 43.5785 385.531 44.8125 384.134 44.9432C382.738 45.0739 381.504 44.051 381.374 42.6546C381.243 41.2582 382.266 40.0242 383.662 39.8935C385.059 39.7628 386.293 40.7857 386.423 42.1821Z"
        stroke="black" stroke-width="1.5" stroke-linecap="round" stroke-linejoin="round" />
    <path
        d="M384.443 48.2508C386.932 48.0179 389.116 46.3338 390.494 43.6437C391.035 42.5899 390.879 40.9184 390.152 39.9834C388.3 37.5956 385.842 36.3458 383.353 36.5787C380.863 36.8117 378.68 38.4958 377.302 41.1858C376.76 42.2397 376.916 43.9111 377.644 44.8462C379.496 47.234 381.953 48.4838 384.443 48.2508Z"
        stroke="black" stroke-width="1.5" stroke-linecap="round" stroke-linejoin="round" />
    <path
        d="M401.03 45.837L403.106 36.965L404.588 36.8263L408.271 45.1594L407.166 45.2628L403.726 37.5337L404.06 37.5024L402.136 45.7335L401.03 45.837ZM402.228 43.694L402.135 42.6964L406.604 42.2782L406.697 43.2759L402.228 43.694ZM411.89 45.0016C411.288 45.0578 410.759 44.9567 410.301 44.6983C409.842 44.4359 409.472 44.0588 409.189 43.567C408.91 43.0748 408.74 42.5062 408.68 41.861C408.62 41.2158 408.681 40.6255 408.864 40.0901C409.051 39.5544 409.346 39.119 409.748 38.784C410.151 38.4451 410.65 38.2477 411.248 38.1918C411.857 38.1347 412.383 38.2342 412.824 38.4902C413.266 38.7461 413.616 39.1211 413.876 39.6151C414.139 40.1088 414.3 40.6802 414.361 41.3293C414.421 41.9705 414.368 42.5601 414.201 43.098C414.038 43.6315 413.763 44.069 413.377 44.4104C412.991 44.7479 412.495 44.9449 411.89 45.0016ZM411.93 44.0155C412.364 43.9749 412.711 43.838 412.971 43.6048C413.23 43.3676 413.408 43.0597 413.505 42.681C413.606 42.2979 413.634 41.8714 413.59 41.4015C413.546 40.9235 413.439 40.5097 413.27 40.1599C413.104 39.8058 412.874 39.5401 412.58 39.3627C412.286 39.1813 411.928 39.1104 411.506 39.1499C411.068 39.1909 410.716 39.3323 410.449 39.5742C410.186 39.8157 410.002 40.1262 409.897 40.5057C409.796 40.8847 409.767 41.3013 409.809 41.7553C409.852 42.2133 409.96 42.621 410.134 42.9783C410.308 43.3317 410.544 43.6029 410.843 43.7918C411.146 43.9804 411.508 44.055 411.93 44.0155ZM413.892 44.6334L413.449 39.8841L413.329 39.8952L412.969 36.042L414.039 35.9419L414.842 44.5445L413.892 44.6334Z"
        fill="black" />
    <rect width="1" height="17" rx="0.5"
        transform="matrix(0.99565 -0.0931695 0.0929921 0.995667 426.418 29.9022)" fill="#B5B5B5" />
    <path
        d="M451.14 36.1261C451.271 37.5225 450.248 38.7565 448.851 38.8872C447.455 39.0178 446.221 37.995 446.091 36.5986C445.96 35.2022 446.983 33.9681 448.38 33.8375C449.776 33.7068 451.01 34.7296 451.14 36.1261Z"
        stroke="black" stroke-width="1.5" stroke-linecap="round" stroke-linejoin="round" />
    <path
        d="M449.16 42.1948C451.65 41.9619 453.833 40.2778 455.211 37.5877C455.753 36.5339 455.596 34.8624 454.869 33.9274C453.017 31.5396 450.559 30.2897 448.07 30.5227C445.58 30.7557 443.397 32.4397 442.019 35.1298C441.477 36.1836 441.633 37.8551 442.361 38.7901C444.213 41.178 446.67 42.4278 449.16 42.1948Z"
        stroke="black" stroke-width="1.5" stroke-linecap="round" stroke-linejoin="round" />
    <path
        d="M465.747 39.7809L467.823 30.9089L469.305 30.7703L472.988 39.1034L471.883 39.2068L468.443 31.4777L468.777 31.4464L466.853 39.6775L465.747 39.7809ZM466.945 37.638L466.852 36.6403L471.321 36.2222L471.414 37.2199L466.945 37.638ZM476.87 38.9209C476.236 38.9802 475.67 38.8926 475.17 38.6582C474.674 38.4194 474.271 38.0614 473.961 37.5841C473.651 37.1029 473.464 36.5258 473.401 35.8527C473.336 35.1478 473.408 34.5263 473.619 33.9883C473.829 33.4464 474.153 33.0144 474.589 32.6924C475.028 32.366 475.561 32.1735 476.186 32.115C476.835 32.0543 477.401 32.152 477.882 32.4082C478.368 32.6641 478.751 33.0582 479.029 33.5905C479.312 34.1225 479.473 34.7723 479.513 35.54L478.437 35.6406L478.402 35.2583C478.316 34.4668 478.099 33.8905 477.752 33.5293C477.405 33.164 476.924 33.0101 476.311 33.0675C475.654 33.129 475.174 33.3869 474.871 33.8411C474.568 34.2953 474.453 34.9167 474.527 35.7053C474.598 36.4659 474.824 37.0394 475.205 37.4255C475.587 37.8116 476.094 37.975 476.728 37.9158C477.154 37.8759 477.515 37.7437 477.811 37.5191C478.108 37.2945 478.329 36.9906 478.474 36.6074L479.528 36.8643C479.33 37.4573 478.993 37.9348 478.517 38.2968C478.044 38.6544 477.495 38.8624 476.87 38.9209ZM474.196 36.0375L474.116 35.1832L478.883 34.7371L478.963 35.5914L474.196 36.0375Z"
        fill="black" />
    <g clip-path="url(#clip2_811_3269)">
        <path
            d="M494.621 32.0572L497.461 28.6314C497.638 28.4188 497.608 28.1035 497.396 27.9272C497.183 27.7509 496.868 27.7804 496.691 27.9931L493.852 31.4191L490.426 28.5794C490.214 28.4031 489.899 28.4326 489.722 28.6453C489.546 28.8579 489.575 29.1732 489.788 29.3495L493.213 32.1889L490.373 35.6147C490.197 35.8273 490.226 36.1426 490.439 36.3189C490.652 36.4952 490.967 36.4657 491.143 36.253L493.983 32.827L497.408 35.6667C497.621 35.843 497.936 35.8135 498.112 35.6008C498.289 35.3882 498.259 35.0729 498.047 34.8966L494.621 32.0572Z"
            fill="#272727" />
    </g>
    <rect width="1" height="17" rx="0.5"
        transform="matrix(0.99565 -0.0931695 0.0929921 0.995667 509.057 22.1691)" fill="#B5B5B5" />
    <path
        d="M533.779 28.3929C533.91 29.7893 532.887 31.0233 531.49 31.154C530.094 31.2847 528.86 30.2618 528.73 28.8654C528.599 27.469 529.622 26.235 531.019 26.1043C532.415 25.9736 533.649 26.9965 533.779 28.3929Z"
        stroke="black" stroke-width="1.5" stroke-linecap="round" stroke-linejoin="round" />
    <path
        d="M531.799 34.4617C534.289 34.2287 536.472 32.5446 537.85 29.8545C538.392 28.8007 538.236 27.1293 537.508 26.1942C535.656 23.8064 533.199 22.5566 530.709 22.7895C528.219 23.0225 526.036 24.7066 524.658 27.3967C524.116 28.4505 524.273 30.1219 525 31.057C526.852 33.4448 529.31 34.6946 531.799 34.4617Z"
        stroke="black" stroke-width="1.5" stroke-linecap="round" stroke-linejoin="round" />
    <path
        d="M548.387 32.0478L550.463 23.1758L551.944 23.0371L555.627 31.3702L554.522 31.4737L551.082 23.7445L551.417 23.7132L549.492 31.9444L548.387 32.0478ZM549.584 29.9048L549.491 28.9072L553.96 28.489L554.053 29.4867L549.584 29.9048ZM557.008 31.241L556.373 24.4366C556.357 24.2693 556.349 24.0993 556.349 23.9266C556.349 23.7498 556.369 23.5772 556.409 23.4087C556.45 23.2362 556.527 23.0743 556.641 22.923C556.773 22.7459 556.924 22.6153 557.093 22.5312C557.261 22.4431 557.434 22.3828 557.612 22.35C557.794 22.317 557.966 22.2928 558.13 22.2775L558.948 22.2009L559.031 23.0851L558.272 23.1561C557.957 23.1855 557.73 23.2852 557.589 23.455C557.448 23.6209 557.392 23.8592 557.421 24.1698L558.072 31.1415L557.008 31.241ZM555.395 25.7695L555.313 24.8914L559.166 24.5308L559.248 25.409L555.395 25.7695Z"
        fill="black" />
    <g clip-path="url(#clip3_811_3269)">
        <path
            d="M574.273 24.6036L577.114 21.1778C577.29 20.9652 577.26 20.6499 577.048 20.4736C576.835 20.2973 576.52 20.3268 576.344 20.5395L573.504 23.9655L570.079 21.1258C569.866 20.9495 569.551 20.979 569.374 21.1917C569.198 21.4043 569.227 21.7196 569.44 21.8959L572.866 24.7353L570.025 28.161C569.849 28.3737 569.878 28.689 570.091 28.8653C570.304 29.0415 570.619 29.0121 570.795 28.7994L573.635 25.3733L577.06 28.2131C577.273 28.3894 577.588 28.3599 577.764 28.1472C577.941 27.9346 577.911 27.6192 577.699 27.443L574.273 24.6036Z"
            fill="#272727" />
    </g>
    <path
        d="M4.7356 95.9775L645.341 36.032L648.632 71.2724C649.454 80.0707 642.988 87.8705 634.19 88.6938L25.4452 145.658C16.6471 146.481 8.84867 140.016 8.02694 131.218L4.7356 95.9775Z"
        fill="white" />
    <path
        d="M30.8295 126.098L24.357 120.593C24.2589 120.51 24.1861 120.416 24.1385 120.313C24.0915 120.209 24.0623 120.096 24.0508 119.974C24.0394 119.852 24.0472 119.735 24.0742 119.625C24.1018 119.514 24.156 119.409 24.237 119.308L29.578 112.698C29.7264 112.515 29.9231 112.408 30.1682 112.377C30.4139 112.346 30.6348 112.414 30.831 112.581C31.0257 112.733 31.1387 112.934 31.17 113.186C31.2007 113.438 31.1352 113.664 30.9733 113.864L27.008 118.771L37.0093 117.836C37.2628 117.812 37.4837 117.88 37.672 118.039C37.8597 118.199 37.9657 118.409 37.9899 118.67C38.0142 118.93 37.949 119.155 37.7941 119.347C37.6387 119.539 37.4343 119.647 37.1807 119.671L27.1794 120.607L31.9848 124.694C32.1646 124.846 32.2705 125.053 32.3025 125.312C32.334 125.571 32.2681 125.793 32.1048 125.978C31.9579 126.177 31.7576 126.289 31.504 126.312C31.2505 126.336 31.0256 126.265 30.8295 126.098Z"
        fill="black" fill-opacity="0.4" />
    <path
        d="M63.0727 123.103C62.8929 122.95 62.7869 122.743 62.7548 122.483C62.7233 122.223 62.7817 122.001 62.9301 121.817L66.8943 116.898L56.8931 117.834C56.6395 117.858 56.4185 117.789 56.2302 117.629C56.0425 117.469 55.9365 117.258 55.9122 116.998C55.8878 116.737 55.953 116.51 56.1078 116.318C56.2632 116.126 56.4676 116.018 56.7212 115.994L66.7225 115.058L61.9161 110.96C61.7362 110.807 61.6377 110.599 61.6205 110.338C61.6039 110.077 61.6698 109.854 61.8181 109.67C61.9664 109.486 62.1674 109.382 62.421 109.358C62.6745 109.334 62.8912 109.399 63.0711 109.552L69.545 115.072C69.6417 115.141 69.7141 115.23 69.7624 115.342C69.8102 115.453 69.8398 115.571 69.8513 115.693C69.8627 115.816 69.855 115.933 69.828 116.044C69.8005 116.154 69.7462 116.26 69.6653 116.36L64.3257 122.986C64.1774 123.17 63.9764 123.274 63.7229 123.297C63.4693 123.321 63.2526 123.256 63.0727 123.103Z"
        fill="black" fill-opacity="0.4" />
    <path
        d="M95.3935 120.334C93.4478 120.516 91.7368 119.995 90.2603 118.771C88.7838 117.547 87.9547 115.962 87.773 114.016C87.5913 112.071 88.1125 110.359 89.3368 108.883C90.561 107.406 92.146 106.577 94.0916 106.394C95.0935 106.301 96.0711 106.418 97.0246 106.747C97.978 107.075 98.8173 107.593 99.5425 108.301L99.4002 106.777C99.3771 106.53 99.4414 106.315 99.593 106.132C99.7442 105.95 99.9431 105.847 100.19 105.824C100.437 105.801 100.651 105.865 100.834 106.016C101.017 106.167 101.119 106.367 101.143 106.613L101.549 110.97C101.572 111.216 101.508 111.431 101.356 111.613C101.205 111.796 101.006 111.899 100.76 111.922L96.4036 112.33C96.1567 112.353 95.9422 112.289 95.7599 112.137C95.577 111.986 95.4741 111.787 95.451 111.54C95.428 111.293 95.4923 111.078 95.6439 110.896C95.795 110.713 95.994 110.611 96.2409 110.587L99.0287 110.327C98.4881 109.557 97.7933 108.977 96.9444 108.588C96.0948 108.199 95.1982 108.049 94.2544 108.137C92.8024 108.273 91.6156 108.896 90.6942 110.008C89.7727 111.119 89.3798 112.401 89.5154 113.853C89.651 115.305 90.2745 116.492 91.3858 117.413C92.4971 118.335 93.7788 118.727 95.2308 118.591C96.2326 118.498 97.1337 118.146 97.9339 117.536C98.7335 116.927 99.3025 116.16 99.6409 115.235C99.6985 115.068 99.8059 114.923 99.9631 114.798C100.12 114.674 100.285 114.603 100.459 114.587C100.793 114.556 101.055 114.648 101.244 114.865C101.432 115.082 101.474 115.341 101.371 115.644C100.934 116.93 100.177 118 99.1002 118.855C98.023 119.71 96.7874 120.203 95.3935 120.334Z"
        fill="black" fill-opacity="0.6" />
    <rect width="492.404" height="28" rx="14"
        transform="matrix(0.99565 -0.0931695 0.0929921 0.995667 119.327 97.0024)" fill="#F1F3F4" />
    <path fill-rule="evenodd" clip-rule="evenodd"
        d="M141.69 103.447C140.077 103.598 138.896 105.073 139.052 106.742L139.334 109.763C139.49 111.432 140.924 112.662 142.537 112.511C144.15 112.36 145.331 110.885 145.175 109.216L144.893 106.195C144.737 104.526 143.303 103.296 141.69 103.447ZM141.771 104.31C140.619 104.418 139.775 105.472 139.886 106.663L140.169 109.685C140.28 110.877 141.304 111.755 142.456 111.648C143.608 111.54 144.452 110.486 144.341 109.294L144.059 106.273C143.947 105.081 142.923 104.202 141.771 104.31Z"
        fill="#8B8A8D" />
    <rect width="7.33333" height="6.82759" rx="0.916667"
        transform="matrix(0.99565 -0.0931695 0.0929921 0.995667 138.427 107.943)" fill="#8B8A8D" />
    <path
        d="M159.594 112.492C158.809 112.566 158.154 112.452 157.627 112.152C157.101 111.852 156.753 111.392 156.583 110.773L157.843 110.457C157.954 110.784 158.162 111.031 158.467 111.2C158.775 111.364 159.144 111.425 159.575 111.385C159.965 111.349 160.262 111.24 160.466 111.061C160.674 110.881 160.765 110.651 160.739 110.372C160.724 110.209 160.672 110.081 160.583 109.989C160.498 109.893 160.327 109.81 160.072 109.742C159.816 109.673 159.429 109.595 158.911 109.507C158.344 109.415 157.89 109.303 157.548 109.17C157.21 109.033 156.961 108.862 156.801 108.656C156.644 108.445 156.552 108.183 156.522 107.868C156.486 107.478 156.558 107.128 156.738 106.818C156.917 106.508 157.187 106.255 157.547 106.061C157.91 105.866 158.345 105.745 158.851 105.698C159.344 105.652 159.792 105.688 160.193 105.807C160.593 105.927 160.927 106.118 161.192 106.383C161.458 106.643 161.632 106.962 161.716 107.34L160.459 107.693C160.386 107.386 160.218 107.155 159.954 106.999C159.691 106.843 159.361 106.775 158.965 106.796C158.585 106.815 158.285 106.908 158.063 107.073C157.841 107.235 157.742 107.439 157.765 107.686C157.778 107.829 157.833 107.946 157.93 108.038C158.031 108.129 158.215 108.208 158.483 108.275C158.75 108.343 159.143 108.417 159.66 108.497C160.215 108.585 160.66 108.7 160.994 108.842C161.328 108.979 161.574 109.159 161.732 109.382C161.893 109.599 161.988 109.874 162.019 110.204C162.079 110.841 161.893 111.363 161.46 111.769C161.032 112.175 160.41 112.416 159.594 112.492ZM166.334 111.867C165.689 111.928 165.116 111.835 164.615 111.588C164.114 111.342 163.71 110.976 163.404 110.491C163.101 110.001 162.918 109.421 162.856 108.752C162.793 108.079 162.869 107.475 163.084 106.941C163.299 106.403 163.63 105.97 164.078 105.643C164.525 105.312 165.065 105.116 165.698 105.057C166.343 104.997 166.917 105.09 167.418 105.336C167.919 105.583 168.322 105.948 168.629 106.434C168.935 106.92 169.12 107.495 169.182 108.16C169.245 108.833 169.169 109.439 168.954 109.977C168.743 110.511 168.414 110.946 167.967 111.281C167.52 111.612 166.975 111.807 166.334 111.867ZM166.224 110.691C166.842 110.633 167.282 110.383 167.546 109.94C167.814 109.493 167.917 108.941 167.856 108.284C167.793 107.611 167.587 107.088 167.239 106.715C166.894 106.337 166.417 106.177 165.808 106.234C165.39 106.273 165.054 106.401 164.801 106.617C164.548 106.83 164.371 107.11 164.271 107.457C164.171 107.799 164.141 108.19 164.182 108.628C164.245 109.305 164.451 109.832 164.799 110.209C165.148 110.586 165.623 110.747 166.224 110.691ZM173.573 111.19C172.912 111.252 172.337 111.157 171.847 110.906C171.358 110.654 170.966 110.283 170.671 109.792C170.38 109.301 170.202 108.73 170.137 108.077C170.079 107.411 170.151 106.812 170.354 106.279C170.557 105.741 170.878 105.306 171.317 104.971C171.756 104.637 172.302 104.439 172.955 104.378C173.66 104.312 174.278 104.431 174.808 104.735C175.343 105.038 175.718 105.487 175.934 106.082L174.725 106.557C174.568 106.206 174.339 105.944 174.037 105.771C173.74 105.594 173.409 105.523 173.047 105.557C172.637 105.595 172.309 105.724 172.065 105.944C171.82 106.16 171.649 106.441 171.553 106.787C171.457 107.134 171.427 107.522 171.463 107.953C171.529 108.617 171.731 109.141 172.068 109.523C172.409 109.905 172.874 110.068 173.463 110.013C173.865 109.976 174.182 109.854 174.411 109.647C174.645 109.437 174.811 109.152 174.91 108.793L176.204 108.973C176.052 109.622 175.749 110.139 175.295 110.523C174.84 110.903 174.266 111.125 173.573 111.19ZM176.83 103.13L176.717 101.917L177.966 101.8L178.079 103.013L176.83 103.13ZM177.532 110.639L176.929 104.187L178.178 104.07L178.78 110.522L177.532 110.639ZM183.517 113.152C183.171 113.185 182.829 113.162 182.492 113.085C182.16 113.008 181.85 112.876 181.564 112.69C181.277 112.508 181.032 112.272 180.829 111.982L181.927 111.288C182.092 111.55 182.31 111.732 182.581 111.836C182.851 111.939 183.13 111.977 183.417 111.95C183.771 111.917 184.068 111.825 184.307 111.674C184.546 111.527 184.718 111.322 184.822 111.059C184.93 110.796 184.965 110.48 184.926 110.11L184.758 108.305L184.907 108.292L184.458 103.482L185.563 103.379L186.182 110.004C186.198 110.175 186.207 110.339 186.21 110.496C186.212 110.652 186.205 110.81 186.187 110.968C186.136 111.411 185.995 111.785 185.762 112.092C185.534 112.399 185.227 112.641 184.842 112.817C184.46 112.994 184.019 113.105 183.517 113.152ZM183.154 110.294C182.552 110.35 182.019 110.249 181.553 109.991C181.091 109.733 180.716 109.359 180.429 108.867C180.146 108.371 179.974 107.801 179.914 107.156C179.853 106.507 179.919 105.916 180.11 105.384C180.301 104.848 180.602 104.412 181.012 104.076C181.426 103.736 181.936 103.538 182.541 103.481C183.151 103.424 183.677 103.525 184.119 103.785C184.564 104.041 184.917 104.416 185.176 104.91C185.439 105.403 185.6 105.973 185.661 106.618C185.721 107.263 185.668 107.853 185.5 108.387C185.333 108.921 185.055 109.358 184.665 109.7C184.275 110.038 183.771 110.236 183.154 110.294ZM183.221 109.148C183.632 109.11 183.957 108.981 184.198 108.762C184.438 108.542 184.602 108.256 184.69 107.902C184.777 107.548 184.8 107.148 184.759 106.702C184.717 106.256 184.618 105.868 184.463 105.537C184.312 105.206 184.099 104.956 183.827 104.789C183.558 104.621 183.228 104.556 182.838 104.592C182.424 104.631 182.093 104.764 181.845 104.992C181.597 105.221 181.423 105.512 181.324 105.867C181.229 106.221 181.201 106.61 181.24 107.032C181.28 107.458 181.38 107.838 181.539 108.173C181.703 108.503 181.923 108.758 182.201 108.936C182.483 109.115 182.823 109.186 183.221 109.148ZM188.983 112.46L189.914 108.944L190.026 109.946L186.565 103.285L187.868 103.163L190.47 108.313L190.088 108.349L191.595 102.815L192.862 102.696L190.172 112.349L188.983 112.46ZM193.659 109.13L193.535 107.81L194.856 107.686L194.979 109.006L193.659 109.13ZM199.639 108.751C198.978 108.813 198.403 108.718 197.913 108.467C197.424 108.215 197.031 107.844 196.736 107.353C196.446 106.862 196.268 106.29 196.203 105.638C196.144 104.972 196.217 104.373 196.42 103.839C196.623 103.302 196.944 102.866 197.383 102.532C197.822 102.198 198.368 102 199.021 101.939C199.726 101.873 200.344 101.992 200.874 102.296C201.409 102.599 201.784 103.048 202 103.643L200.791 104.117C200.634 103.767 200.404 103.505 200.103 103.332C199.805 103.155 199.475 103.084 199.113 103.117C198.703 103.156 198.375 103.285 198.131 103.505C197.886 103.72 197.715 104.002 197.619 104.348C197.523 104.694 197.493 105.083 197.529 105.513C197.595 106.178 197.796 106.702 198.133 107.084C198.474 107.466 198.94 107.629 199.529 107.574C199.931 107.536 200.247 107.414 200.477 107.208C200.711 106.997 200.877 106.713 200.976 106.354L202.27 106.534C202.118 107.183 201.815 107.7 201.36 108.084C200.906 108.464 200.332 108.686 199.639 108.751ZM206.296 108.128C205.651 108.188 205.078 108.095 204.577 107.849C204.076 107.603 203.672 107.237 203.366 106.751C203.063 106.261 202.88 105.682 202.818 105.013C202.755 104.339 202.831 103.736 203.046 103.201C203.261 102.663 203.592 102.23 204.04 101.903C204.487 101.572 205.027 101.377 205.66 101.318C206.306 101.257 206.879 101.35 207.38 101.597C207.881 101.843 208.285 102.209 208.591 102.695C208.898 103.18 209.082 103.755 209.144 104.421C209.207 105.094 209.131 105.699 208.916 106.238C208.705 106.772 208.376 107.206 207.929 107.541C207.482 107.872 206.938 108.068 206.296 108.128ZM206.187 106.951C206.804 106.893 207.244 106.643 207.508 106.201C207.776 105.754 207.879 105.202 207.818 104.545C207.755 103.872 207.549 103.348 207.201 102.975C206.857 102.598 206.38 102.437 205.77 102.494C205.352 102.534 205.017 102.661 204.764 102.878C204.51 103.09 204.333 103.37 204.233 103.717C204.133 104.06 204.103 104.45 204.144 104.888C204.207 105.565 204.413 106.093 204.762 106.47C205.11 106.847 205.585 107.007 206.187 106.951ZM218.489 106.806L218.119 102.785C218.076 102.319 217.922 101.968 217.659 101.731C217.396 101.491 217.069 101.389 216.679 101.426C216.44 101.448 216.226 101.524 216.037 101.654C215.852 101.78 215.708 101.958 215.605 102.189C215.506 102.415 215.471 102.692 215.502 103.018L214.87 102.77C214.819 102.317 214.878 101.909 215.045 101.548C215.216 101.187 215.466 100.896 215.795 100.677C216.124 100.453 216.503 100.321 216.933 100.281C217.63 100.216 218.189 100.374 218.611 100.757C219.032 101.139 219.275 101.677 219.34 102.37L219.737 106.689L218.489 106.806ZM210.753 107.53L210.15 101.078L211.261 100.974L211.435 102.838L211.579 102.825L212.007 107.413L210.753 107.53ZM214.624 107.168L214.256 103.171C214.213 102.701 214.059 102.344 213.795 102.099C213.535 101.854 213.206 101.75 212.808 101.788C212.413 101.825 212.107 101.99 211.89 102.283C211.676 102.577 211.59 102.942 211.631 103.38L210.997 103.054C210.958 102.632 211.024 102.246 211.197 101.896C211.369 101.547 211.619 101.26 211.948 101.037C212.277 100.813 212.66 100.681 213.098 100.64C213.556 100.597 213.955 100.658 214.296 100.823C214.637 100.984 214.907 101.23 215.106 101.561C215.31 101.891 215.433 102.285 215.476 102.743L215.872 107.051L214.624 107.168Z"
        fill="#212121" />
    <path opacity="0.7"
        d="M223.199 97.6878L224.28 97.5866L222.789 106.404L221.708 106.505L223.199 97.6878ZM233.985 105.356L233.606 101.228C233.561 100.746 233.396 100.381 233.112 100.135C232.831 99.8839 232.486 99.7776 232.076 99.816C231.837 99.8383 231.615 99.9153 231.41 100.047C231.205 100.175 231.046 100.362 230.933 100.61C230.819 100.854 230.779 101.157 230.813 101.519L230.23 101.345C230.179 100.887 230.235 100.478 230.399 100.118C230.565 99.7524 230.811 99.4582 231.136 99.235C231.46 99.0118 231.838 98.8801 232.268 98.8398C232.941 98.7768 233.49 98.9324 233.914 99.3064C234.339 99.6765 234.583 100.206 234.647 100.895L235.049 105.257L233.985 105.356ZM226.267 106.078L225.664 99.6265L226.614 99.5376L226.775 101.264L226.895 101.253L227.336 105.978L226.267 106.078ZM230.132 105.717L229.756 101.63C229.71 101.136 229.547 100.762 229.266 100.507C228.984 100.248 228.633 100.138 228.211 100.178C227.792 100.217 227.467 100.392 227.235 100.703C227.003 101.014 226.909 101.406 226.953 101.88L226.361 101.598C226.322 101.18 226.386 100.796 226.555 100.447C226.723 100.098 226.969 99.8137 227.294 99.5945C227.619 99.3712 227.998 99.2393 228.433 99.1987C228.867 99.1581 229.254 99.2143 229.593 99.3673C229.933 99.5203 230.206 99.7599 230.414 100.086C230.62 100.408 230.746 100.804 230.79 101.274L231.189 105.618L230.132 105.717ZM239.075 105.049C238.661 105.087 238.299 105.055 237.988 104.951C237.681 104.848 237.419 104.695 237.204 104.495C236.988 104.294 236.812 104.065 236.676 103.809C236.539 103.552 236.434 103.287 236.36 103.013C236.291 102.738 236.244 102.479 236.222 102.236L235.888 98.6697L236.964 98.5691L237.266 101.801C237.294 102.104 237.349 102.394 237.431 102.671C237.513 102.949 237.631 103.195 237.783 103.41C237.94 103.624 238.136 103.787 238.371 103.897C238.611 104.007 238.9 104.047 239.238 104.015C239.505 103.99 239.744 103.921 239.954 103.809C240.165 103.697 240.339 103.544 240.478 103.351C240.616 103.153 240.714 102.911 240.771 102.624C240.829 102.337 240.84 102.009 240.806 101.638L241.525 101.788C241.583 102.409 241.519 102.956 241.334 103.427C241.153 103.898 240.869 104.274 240.482 104.555C240.098 104.832 239.629 104.997 239.075 105.049ZM241.21 104.68L241.049 102.954L240.93 102.965L240.488 98.2393L241.558 98.1392L242.16 104.591L241.21 104.68ZM243.952 104.423L243.132 95.6417L244.196 95.5422L245.016 104.324L243.952 104.423ZM250.41 103.819C250.035 103.931 249.66 103.996 249.284 104.015C248.912 104.038 248.575 103.995 248.271 103.887C247.968 103.775 247.727 103.58 247.548 103.304C247.397 103.061 247.303 102.81 247.267 102.552C247.235 102.29 247.203 101.994 247.172 101.663L246.63 95.8568L247.693 95.7572L248.231 101.516C248.255 101.779 248.278 102.004 248.3 102.191C248.325 102.377 248.382 102.535 248.471 102.663C248.638 102.904 248.879 103.032 249.193 103.047C249.512 103.062 249.889 103.014 250.325 102.905L250.41 103.819ZM245.571 98.6496L245.489 97.7714L249.808 97.3672L249.89 98.2454L245.571 98.6496ZM251.131 96.0924L251.028 94.9932L252.091 94.8937L252.194 95.9929L251.131 96.0924ZM251.84 103.685L251.237 97.2335L252.301 97.134L252.903 103.586L251.84 103.685ZM258.298 103.081C257.923 103.193 257.547 103.258 257.171 103.277C256.8 103.3 256.462 103.257 256.159 103.149C255.855 103.036 255.614 102.842 255.436 102.565C255.284 102.323 255.191 102.072 255.154 101.814C255.122 101.552 255.09 101.256 255.059 100.925L254.517 95.1187L255.58 95.0192L256.118 100.778C256.143 101.041 256.166 101.266 256.187 101.453C256.213 101.639 256.27 101.796 256.358 101.925C256.525 102.166 256.766 102.294 257.081 102.309C257.4 102.323 257.777 102.276 258.212 102.167L258.298 103.081ZM253.458 97.9115L253.376 97.0333L257.695 96.6291L257.777 97.5073L253.458 97.9115ZM261.458 102.966C260.977 103.011 260.564 102.961 260.221 102.817C259.882 102.668 259.615 102.456 259.421 102.181C259.23 101.905 259.119 101.594 259.086 101.248C259.055 100.909 259.091 100.61 259.196 100.352C259.304 100.088 259.467 99.8641 259.687 99.6788C259.906 99.4896 260.175 99.3319 260.493 99.2057C260.791 99.0934 261.127 98.9896 261.5 98.8945C261.876 98.795 262.257 98.7011 262.643 98.6128C263.028 98.5245 263.388 98.4406 263.722 98.3612L263.36 98.618C263.319 98.0433 263.164 97.63 262.895 97.3779C262.63 97.1255 262.203 97.0268 261.614 97.082C261.224 97.1185 260.89 97.2402 260.612 97.447C260.337 97.6494 260.159 97.9554 260.077 98.3648L259.039 98.1546C259.141 97.5745 259.4 97.1023 259.816 96.738C260.232 96.3737 260.804 96.1574 261.533 96.0892C262.119 96.0344 262.63 96.093 263.068 96.2649C263.51 96.4325 263.842 96.7189 264.064 97.1239C264.175 97.3144 264.253 97.5261 264.299 97.7588C264.344 97.9876 264.379 98.2294 264.402 98.4843L264.775 102.475L263.831 102.563L263.687 101.016L263.921 101.139C263.727 101.683 263.423 102.109 263.01 102.417C262.601 102.725 262.084 102.908 261.458 102.966ZM261.537 102.061C261.919 102.025 262.243 101.926 262.509 101.765C262.779 101.599 262.989 101.397 263.14 101.158C263.29 100.915 263.378 100.657 263.405 100.386C263.446 100.181 263.457 99.9568 263.439 99.7134C263.423 99.4658 263.41 99.2762 263.398 99.1448L263.783 99.2714C263.441 99.3517 263.105 99.4293 262.774 99.5044C262.444 99.5795 262.132 99.657 261.838 99.7367C261.544 99.8124 261.28 99.8953 261.048 99.9854C260.877 100.058 260.719 100.145 260.572 100.247C260.429 100.349 260.316 100.474 260.233 100.622C260.154 100.766 260.124 100.94 260.143 101.143C260.16 101.318 260.219 101.481 260.321 101.632C260.428 101.783 260.579 101.899 260.776 101.981C260.976 102.063 261.23 102.09 261.537 102.061ZM268.782 102.275C268.013 102.347 267.366 102.238 266.841 101.95C266.32 101.657 265.975 101.214 265.807 100.619L266.878 100.344C266.998 100.686 267.226 100.946 267.56 101.124C267.893 101.297 268.293 101.362 268.759 101.319C269.201 101.277 269.539 101.153 269.773 100.947C270.006 100.74 270.109 100.479 270.079 100.165C270.062 99.9815 270.007 99.838 269.913 99.7344C269.818 99.6267 269.635 99.5354 269.363 99.4604C269.095 99.3851 268.691 99.3023 268.152 99.2121C267.569 99.114 267.106 98.9986 266.764 98.8659C266.422 98.7332 266.172 98.5658 266.012 98.3638C265.853 98.1618 265.759 97.9074 265.73 97.6008C265.695 97.2224 265.767 96.8822 265.948 96.58C266.128 96.2739 266.396 96.0258 266.752 95.8358C267.112 95.6455 267.539 95.5272 268.033 95.481C268.523 95.4351 268.968 95.4718 269.369 95.591C269.77 95.7102 270.101 95.9021 270.363 96.1669C270.628 96.4273 270.8 96.7446 270.88 97.1189L269.811 97.4178C269.727 97.0761 269.534 96.819 269.232 96.6463C268.935 96.4732 268.565 96.4014 268.122 96.4309C267.702 96.4541 267.368 96.5596 267.121 96.7475C266.877 96.935 266.768 97.1681 266.794 97.4469C266.809 97.6023 266.869 97.7312 266.975 97.8338C267.085 97.936 267.276 98.0246 267.548 98.0995C267.824 98.1741 268.221 98.2515 268.739 98.3316C269.322 98.4217 269.785 98.5371 270.127 98.6778C270.473 98.8141 270.727 98.9912 270.888 99.2092C271.049 99.4232 271.144 99.6974 271.176 100.032C271.234 100.653 271.05 101.165 270.626 101.566C270.201 101.963 269.586 102.199 268.782 102.275ZM272.658 101.737L271.861 93.1342L272.936 93.0335L273.427 98.2907L275.843 94.9309L277.223 94.8018L274.675 98.2944L278.16 101.222L276.672 101.362L273.449 98.5296L273.739 101.636L272.658 101.737ZM277.963 97.8843L277.881 97.0061L281.465 96.6707L281.547 97.5489L277.963 97.8843ZM286.39 100.633C285.784 100.69 285.261 100.588 284.819 100.328C284.376 100.064 284.023 99.6854 283.76 99.1918C283.501 98.6938 283.341 98.1242 283.281 97.483C283.221 96.8338 283.272 96.2425 283.435 95.709C283.602 95.1751 283.879 94.7414 284.266 94.4079C284.656 94.0741 285.154 93.8788 285.76 93.8222C286.357 93.7663 286.885 93.8675 287.343 94.126C287.804 94.3801 288.175 94.7532 288.454 95.2454C288.733 95.7375 288.902 96.3062 288.963 96.9514C289.023 97.5966 288.961 98.1869 288.778 98.7222C288.595 99.2576 288.301 99.697 287.895 100.04C287.493 100.379 286.991 100.577 286.39 100.633ZM283.404 100.732L282.601 92.1291L283.67 92.0291L284.03 95.8823L283.91 95.8935L284.354 100.643L283.404 100.732ZM286.167 99.6716C286.594 99.6318 286.936 99.4912 287.195 99.2501C287.453 99.0089 287.635 98.6986 287.74 98.3192C287.845 97.9358 287.876 97.515 287.834 97.057C287.791 96.603 287.683 96.1993 287.509 95.846C287.34 95.4922 287.102 95.2212 286.795 95.033C286.492 94.8444 286.121 94.7706 285.683 94.8116C285.265 94.8507 284.928 94.9867 284.673 95.2195C284.417 95.4483 284.239 95.7523 284.137 96.1314C284.036 96.5065 284.007 96.933 284.052 97.4109C284.096 97.8808 284.201 98.2949 284.367 98.653C284.537 99.0067 284.771 99.2761 285.069 99.461C285.367 99.6421 285.733 99.7123 286.167 99.6716ZM293.387 99.9784C292.753 100.038 292.187 99.95 291.687 99.7156C291.19 99.4768 290.787 99.1188 290.478 98.6416C290.168 98.1604 289.981 97.5832 289.918 96.9102C289.852 96.2052 289.925 95.5838 290.136 95.0458C290.346 94.5038 290.67 94.0718 291.105 93.7498C291.545 93.4234 292.077 93.231 292.703 93.1725C293.352 93.1117 293.917 93.2095 294.399 93.4657C294.885 93.7215 295.268 94.1156 295.546 94.648C295.829 95.1799 295.99 95.8298 296.03 96.5974L294.954 96.698L294.919 96.3157C294.833 95.5243 294.616 94.9479 294.269 94.5867C293.922 94.2215 293.441 94.0676 292.828 94.125C292.171 94.1865 291.691 94.4443 291.387 94.8985C291.084 95.3527 290.97 95.9741 291.043 96.7627C291.114 97.5234 291.341 98.0968 291.722 98.4829C292.104 98.8691 292.611 99.0325 293.244 98.9732C293.671 98.9334 294.032 98.8011 294.328 98.5765C294.625 98.3519 294.845 98.0481 294.99 97.6649L296.045 97.9218C295.847 98.5148 295.51 98.9922 295.034 99.3542C294.561 99.7118 294.012 99.9199 293.387 99.9784ZM290.713 97.0949L290.633 96.2407L295.4 95.7946L295.48 96.6488L290.713 97.0949ZM301.235 99.0631C300.86 99.1746 300.484 99.2398 300.109 99.2589C299.737 99.2817 299.4 99.2389 299.096 99.1307C298.793 99.0185 298.551 98.8241 298.373 98.5476C298.222 98.3046 298.128 98.0542 298.092 97.7965C298.059 97.5344 298.028 97.238 297.997 96.9075L297.454 91.1007L298.518 91.0012L299.056 96.7602C299.08 97.023 299.103 97.2479 299.125 97.4347C299.15 97.6211 299.207 97.7785 299.295 97.9068C299.463 98.1483 299.703 98.2764 300.018 98.2912C300.337 98.3055 300.714 98.2582 301.15 98.1491L301.235 99.0631ZM296.396 93.8935L296.314 93.0154L300.633 92.6112L300.715 93.4894L296.396 93.8935ZM305.435 98.6701C305.06 98.7816 304.684 98.8469 304.308 98.866C303.937 98.8887 303.599 98.8459 303.296 98.7377C302.992 98.6255 302.751 98.4311 302.573 98.1546C302.421 97.9116 302.328 97.6612 302.292 97.4035C302.259 97.1414 302.227 96.845 302.196 96.5145L301.654 90.7078L302.717 90.6082L303.255 96.3672C303.28 96.63 303.303 96.8549 303.324 97.0417C303.35 97.2281 303.407 97.3855 303.495 97.5138C303.662 97.7553 303.903 97.8834 304.218 97.8982C304.537 97.9125 304.914 97.8652 305.35 97.7561L305.435 98.6701ZM300.595 93.5006L300.513 92.6224L304.832 92.2182L304.914 93.0964L300.595 93.5006ZM309.558 98.4651C308.925 98.5243 308.358 98.4368 307.858 98.2023C307.362 97.9635 306.959 97.6055 306.649 97.1283C306.339 96.6471 306.153 96.07 306.09 95.3969C306.024 94.692 306.096 94.0705 306.307 93.5325C306.518 92.9905 306.841 92.5585 307.277 92.2365C307.717 91.9102 308.249 91.7177 308.874 91.6592C309.523 91.5985 310.089 91.6962 310.571 91.9524C311.057 92.2082 311.439 92.6023 311.718 93.1347C312 93.6667 312.162 94.3165 312.201 95.0841L311.126 95.1848L311.09 94.8024C311.004 94.011 310.788 93.4347 310.441 93.0734C310.093 92.7082 309.613 92.5543 308.999 92.6117C308.342 92.6732 307.862 92.931 307.559 93.3852C307.256 93.8395 307.141 94.4608 307.215 95.2494C307.286 96.0101 307.512 96.5835 307.894 96.9696C308.275 97.3558 308.783 97.5192 309.416 97.46C309.842 97.4201 310.203 97.2878 310.5 97.0633C310.796 96.8387 311.017 96.5348 311.162 96.1516L312.216 96.4085C312.019 97.0015 311.682 97.479 311.205 97.8409C310.732 98.1985 310.183 98.4066 309.558 98.4651ZM306.884 95.5817L306.805 94.7274L311.572 94.2813L311.652 95.1356L306.884 95.5817ZM313.805 97.8869L313.202 91.435L314.152 91.3461L314.297 92.9053L314.123 92.7168C314.18 92.5105 314.261 92.3182 314.365 92.1398C314.472 91.9609 314.597 91.8107 314.738 91.689C314.893 91.5379 315.072 91.4167 315.277 91.3252C315.481 91.2338 315.692 91.1718 315.91 91.1394C316.128 91.103 316.334 91.0977 316.529 91.1236L316.623 92.1213C316.394 92.0824 316.148 92.0894 315.883 92.1423C315.619 92.1951 315.381 92.3158 315.17 92.5043C314.977 92.671 314.832 92.8654 314.736 93.0872C314.644 93.3088 314.588 93.545 314.567 93.7961C314.546 94.0431 314.548 94.2941 314.571 94.549L314.874 97.7869L313.805 97.8869Z"
        fill="#202020" />
    <rect width="3" height="3" rx="1.5"
        transform="matrix(0.99565 -0.0931695 0.0929921 0.995667 628.116 55.9203)" fill="#949494" />
    <rect width="3" height="3" rx="1.5"
        transform="matrix(0.99565 -0.0931695 0.0929921 0.995667 628.674 61.8943)" fill="#949494" />
    <rect width="3" height="3" rx="1.5"
        transform="matrix(0.99565 -0.0931695 0.0929921 0.995667 629.232 67.8683)" fill="#949494" />
    <path
        d="M135.512 62.126C136.627 62.0177 137.44 60.9909 137.328 59.8327C137.215 58.6745 136.22 57.8234 135.105 57.9317C133.99 58.04 133.177 59.0667 133.289 60.225C133.401 61.3832 134.396 62.2343 135.512 62.126Z"
        fill="black" />
    <path
        d="M136.792 75.3289C137.907 75.2206 138.72 74.1938 138.608 73.0356C138.495 71.8774 137.5 71.0262 136.385 71.1346C135.27 71.2429 134.457 72.2696 134.569 73.4278C134.681 74.5861 135.676 75.4372 136.792 75.3289Z"
        fill="black" />
    <path
        d="M134.959 69.7535C134.719 70.0537 134.373 70.2435 133.997 70.2801C133.216 70.356 132.508 69.7502 132.429 68.9386C132.381 68.4426 132.575 67.9551 132.948 67.6429L136.911 63.6747C137.165 63.3341 137.549 63.1245 137.964 63.1029C138.748 63.0614 139.432 63.6961 139.478 64.511C139.504 64.9638 139.328 65.4024 139.003 65.7021L134.959 69.7544L134.959 69.7535Z"
        fill="black" />
    <path
        d="M132.343 65.9007C132.202 65.6854 132.114 65.4356 132.089 65.1762C132.008 64.34 132.59 63.5885 133.379 63.5119C133.772 63.4737 134.165 63.6086 134.465 63.8839"
        fill="black" />
    <path
        d="M139.51 67.3251C139.665 67.5292 139.77 67.772 139.814 68.0296C139.953 68.8584 139.426 69.6516 138.645 69.7878C138.256 69.8558 137.854 69.751 137.536 69.4988"
        fill="black" />
    <defs>
        <clipPath id="clip0_811_3269">
            <rect width="8" height="8" fill="white"
                transform="matrix(0.99565 -0.0931695 0.0929921 0.995667 85.3289 66.3398)" />
        </clipPath>
        <clipPath id="clip1_811_3269">
            <rect width="8" height="8" fill="white"
                transform="matrix(0.99565 -0.0931695 0.0929921 0.995667 205.802 55.0663)" />
        </clipPath>
        <clipPath id="clip2_811_3269">
            <rect width="8" height="8" fill="white"
                transform="matrix(0.99565 -0.0931695 0.0929921 0.995667 489.563 28.5131)" />
        </clipPath>
        <clipPath id="clip3_811_3269">
            <rect width="8" height="8" fill="white"
                transform="matrix(0.99565 -0.0931695 0.0929921 0.995667 569.215 21.0594)" />
        </clipPath>
    </defs>
</svg>    