<svg xmlns="http://www.w3.org/2000/svg" width="161" height="171" viewBox="0 0 161 171" fill="none">
	<rect x="44.5" y="50.619" width="74" height="76.9762" rx="37" stroke="white"/>
	<rect x="18.5" y="22.5475" width="124" height="128.96" rx="62" stroke="white"/>
	<rect x="0.5" y="3.83337" width="160" height="166.389" rx="80" stroke="white"/>
	<path d="M96.5 57.3969C96.5 73.1182 92.9329 87.3265 87.1911 97.5869C81.4402 107.863 73.5744 114.079 65 114.079C56.4256 114.079 48.5598 107.863 42.8089 97.5869C37.0671 87.3265 33.5 73.1182 33.5 57.3969C33.5 41.6756 37.0671 27.4673 42.8089 17.2069C48.5598 6.93036 56.4256 0.714355 65 0.714355C73.5744 0.714355 81.4402 6.93036 87.1911 17.2069C92.9329 27.4673 96.5 41.6756 96.5 57.3969Z" stroke="white"/>
	<path d="M142.428 84.4C142.97 94.3873 141.902 103.498 139.752 110.149C138.677 113.476 137.34 116.162 135.82 118.033C134.301 119.905 132.636 120.921 130.895 121.023C129.154 121.125 127.389 120.31 125.677 118.628C123.964 116.946 122.345 114.434 120.917 111.254C118.061 104.897 116.013 95.9689 115.471 85.9817C114.929 75.9944 115.998 66.8838 118.147 60.2328C119.222 56.9056 120.56 54.22 122.079 52.3484C123.599 50.477 125.264 49.4612 127.005 49.359C128.746 49.2569 130.51 50.0715 132.223 51.7533C133.935 53.4352 135.555 55.9473 136.983 59.1276C139.838 65.485 141.886 74.4128 142.428 84.4Z" stroke="white"/>
	<rect x="11" y="66.754" width="18" height="18.7143" rx="9" fill="url(#paint0_linear_163_1380)"/>
	<rect x="67" y="72.9921" width="30" height="31.1905" rx="15" fill="url(#paint1_linear_163_1380)"/>
	<rect x="107" y="75.0715" width="20" height="20.7936" rx="10" fill="url(#paint2_linear_163_1380)"/>
	<rect x="82" y="14.7698" width="18" height="18.7143" rx="9" fill="url(#paint3_linear_163_1380)"/>
	<rect x="36" y="131.214" width="18" height="18.7143" rx="9" fill="url(#paint4_linear_163_1380)"/>
	<rect x="89" y="140.571" width="18" height="18.7143" rx="9" fill="url(#paint5_linear_163_1380)"/>
	<rect x="129" y="101.064" width="18" height="18.7143" rx="9" fill="url(#paint6_linear_163_1380)"/>
	<rect x="37" y="91.7063" width="20" height="20.7936" rx="10" fill="url(#paint7_linear_163_1380)"/>
	<rect x="44" y="54.2777" width="20" height="20.7936" rx="10" fill="url(#paint8_linear_163_1380)"/>
	<rect x="85" y="44.9207" width="20" height="20.7936" rx="10" fill="url(#paint9_linear_163_1380)"/>
	<defs>
		<linearGradient id="paint0_linear_163_1380" x1="20" y1="66.754" x2="20" y2="85.4683" gradientUnits="userSpaceOnUse">
			<stop stop-color="#FBAB25"/>
			<stop offset="0.5" stop-color="#E44346"/>
			<stop offset="1" stop-color="#97286C"/>
		</linearGradient>
		<linearGradient id="paint1_linear_163_1380" x1="69" y1="83" x2="96" y2="93.5" gradientUnits="userSpaceOnUse">
			<stop stop-color="#FBAC24"/>
			<stop offset="0.5" stop-color="#E23E49"/>
			<stop offset="1" stop-color="#8F286F"/>
		</linearGradient>
		<linearGradient id="paint2_linear_163_1380" x1="117" y1="75.0715" x2="117" y2="95.8651" gradientUnits="userSpaceOnUse">
			<stop stop-color="#FBAC24"/>
			<stop offset="0.5" stop-color="#E23E49"/>
			<stop offset="1" stop-color="#8F286F"/>
		</linearGradient>
		<linearGradient id="paint3_linear_163_1380" x1="91" y1="14.7698" x2="91" y2="33.4841" gradientUnits="userSpaceOnUse">
			<stop stop-color="#FBAC24"/>
			<stop offset="0.5" stop-color="#E23E49"/>
			<stop offset="1" stop-color="#8F286F"/>
		</linearGradient>
		<linearGradient id="paint4_linear_163_1380" x1="36" y1="140.571" x2="54" y2="140.571" gradientUnits="userSpaceOnUse">
			<stop stop-color="#FBAC24"/>
			<stop offset="0.5" stop-color="#E23E49"/>
			<stop offset="1" stop-color="#8F286F"/>
		</linearGradient>
		<linearGradient id="paint5_linear_163_1380" x1="98" y1="159.286" x2="98" y2="140.571" gradientUnits="userSpaceOnUse">
			<stop stop-color="#FBAC24"/>
			<stop offset="0.5" stop-color="#E23E49"/>
			<stop offset="1" stop-color="#8F286F"/>
		</linearGradient>
		<linearGradient id="paint6_linear_163_1380" x1="129" y1="110.421" x2="147" y2="110.421" gradientUnits="userSpaceOnUse">
			<stop stop-color="#FBAC24"/>
			<stop offset="0.5" stop-color="#E23E49"/>
			<stop offset="1" stop-color="#8F286F"/>
		</linearGradient>
		<linearGradient id="paint7_linear_163_1380" x1="57" y1="102.103" x2="37" y2="102.103" gradientUnits="userSpaceOnUse">
			<stop stop-color="#FBAC24"/>
			<stop offset="0.5" stop-color="#E23E49"/>
			<stop offset="1" stop-color="#8F286F"/>
		</linearGradient>
		<linearGradient id="paint8_linear_163_1380" x1="60.5" y1="72" x2="47.5" y2="58" gradientUnits="userSpaceOnUse">
			<stop stop-color="#FBAC24"/>
			<stop offset="0.5" stop-color="#E23E49"/>
			<stop offset="1" stop-color="#8F286F"/>
		</linearGradient>
		<linearGradient id="paint9_linear_163_1380" x1="95" y1="65.7143" x2="95" y2="44.9207" gradientUnits="userSpaceOnUse">
			<stop stop-color="#FBAC24"/>
			<stop offset="0.5" stop-color="#E23E49"/>
			<stop offset="1" stop-color="#8F286F"/>
		</linearGradient>
	</defs>
</svg>