<svg width="26" height="26" viewBox="0 0 26 26" fill="none" xmlns="http://www.w3.org/2000/svg">
    <rect width="3.25" height="3.25" rx="1.625" transform="matrix(1 0 0 -1 0 3.25)" fill="white" />
    <rect width="3.25" height="3.25" rx="1.625" transform="matrix(1 0 0 -1 11 3.25)" fill="white" />
    <rect width="3.25" height="3.25" rx="1.625" transform="matrix(1 0 0 -1 22 3.25)" fill="white" />
    <rect width="3.25" height="3.25" rx="1.625" transform="matrix(1 0 0 -1 22 14.25)" fill="white" />
    <rect width="3.25" height="3.25" rx="1.625" transform="matrix(1 0 0 -1 22 25.25)" fill="white" />
    <rect width="3.25" height="3.25" rx="1.625" transform="matrix(1 0 0 -1 11 25.25)" fill="white" />
    <rect width="3.25" height="3.25" rx="1.625" transform="matrix(1 0 0 -1 0 25.25)" fill="white" />
    <rect width="3.25" height="3.25" rx="1.625" transform="matrix(1 0 0 -1 0 14.25)" fill="white" />
    <rect width="3.25" height="3.25" rx="1.625" transform="matrix(1 0 0 -1 11 14.25)" fill="white" />
</svg>
    