<svg xmlns="http://www.w3.org/2000/svg" version="1.1" xmlns:xlink="http://www.w3.org/1999/xlink" xmlns:svgjs="http://svgjs.dev/svgjs" width="140" height="140"><svg width="140" height="140" viewBox="0 0 140 140" fill="none" xmlns="http://www.w3.org/2000/svg">
    <rect width="140" height="140" rx="70" fill="black"></rect>
    <path d="M70.4353 46.2327C76.5809 46.2327 81.5628 41.2557 81.5628 35.1163C81.5628 28.977 76.5809 24 70.4353 24C64.2898 24 59.3079 28.977 59.3079 35.1163C59.3079 41.2557 64.2898 46.2327 70.4353 46.2327Z" fill="white"></path>
    <path d="M70.4353 116.217C76.5809 116.217 81.5628 111.24 81.5628 105.101C81.5628 98.9613 76.5809 93.9844 70.4353 93.9844C64.2898 93.9844 59.3079 98.9613 59.3079 105.101C59.3079 111.24 64.2898 116.217 70.4353 116.217Z" fill="white"></path>
    <path d="M63.381 86.0046C61.9113 87.4588 59.9237 88.2791 57.8522 88.2791C53.5459 88.2791 50 84.7368 50 80.4348C50 77.806 51.3204 75.345 53.5179 73.8955L77.2565 55.0793C78.8195 53.42 81.031 52.5158 83.3078 52.6136C87.6095 52.7954 91.006 56.4776 90.8241 60.7796C90.7261 63.1707 89.5364 65.3846 87.6001 66.7922L63.381 86.0093V86.0046Z" fill="white"></path>
    <path d="M51.1384 64.4387C50.4805 63.2362 50.1353 61.8799 50.1353 60.5049C50.1353 56.0724 53.7091 52.4229 58.0575 52.4229C60.2223 52.4229 62.2985 53.3317 63.7915 54.9304" fill="white"></path>
    <path d="M89.5083 75.5732C90.2501 76.7245 90.6934 78.0529 90.796 79.4278C91.1179 83.8511 87.8194 87.7476 83.485 88.0645C81.3248 88.223 79.188 87.4679 77.583 85.9811" fill="white"></path>
</svg><style>@media (prefers-color-scheme: light) { :root { filter: none; } }
@media (prefers-color-scheme: dark) { :root { filter: none; } }
</style></svg>