<svg width="249" height="89" viewBox="0 0 249 89" fill="none" xmlns="http://www.w3.org/2000/svg">
    <path
        d="M67.896 58C66.04 58 64.2 57.744 62.376 57.232C60.584 56.688 59 55.92 57.624 54.928L61.128 50.08C62.024 50.72 63.064 51.216 64.248 51.568C65.464 51.888 66.68 52.048 67.896 52.048C69.432 52.048 70.68 51.808 71.64 51.328C72.248 51.008 72.552 50.656 72.552 50.272C72.552 49.6 72.456 49.12 72.264 48.832C72.104 48.512 71.688 48.256 71.016 48.064C70.376 47.872 69.272 47.696 67.704 47.536C65.624 47.312 63.8 46.944 62.232 46.432C60.696 45.888 59.496 44.864 58.632 43.36C57.896 42.144 57.528 40.64 57.528 38.848C57.56 37.536 57.928 36.336 58.632 35.248C59.368 34.16 60.376 33.28 61.656 32.608C63.416 31.68 65.56 31.216 68.088 31.216C69.944 31.216 71.768 31.488 73.56 32.032C75.384 32.544 77 33.28 78.408 34.24L74.952 39.088C74.056 38.448 73 37.968 71.784 37.648C70.6 37.296 69.4 37.12 68.184 37.12C66.68 37.12 65.416 37.376 64.392 37.888C63.784 38.208 63.48 38.544 63.48 38.896C63.48 39.632 63.576 40.128 63.768 40.384C63.992 40.704 64.44 40.944 65.112 41.104C65.784 41.264 66.856 41.424 68.328 41.584C70.12 41.776 71.704 42.08 73.08 42.496C74.488 42.912 75.736 43.744 76.824 44.992C77.944 46.208 78.504 47.968 78.504 50.272C78.504 51.616 78.136 52.848 77.4 53.968C76.696 55.056 75.672 55.936 74.328 56.608C72.568 57.536 70.424 58 67.896 58ZM101.571 58.048C99.1394 58.048 96.8994 57.456 94.8514 56.272C92.8034 55.056 91.1714 53.424 89.9554 51.376C88.7394 49.328 88.1314 47.088 88.1314 44.656C88.1314 42.224 88.7394 39.984 89.9554 37.936C91.1714 35.888 92.8034 34.272 94.8514 33.088C96.8994 31.872 99.1394 31.264 101.571 31.264C104.003 31.264 106.243 31.872 108.291 33.088C110.339 34.272 111.955 35.888 113.139 37.936C114.355 39.984 114.963 42.224 114.963 44.656C114.963 47.088 114.355 49.328 113.139 51.376C111.955 53.424 110.339 55.056 108.291 56.272C106.243 57.456 104.003 58.048 101.571 58.048ZM101.571 52.096C102.915 52.096 104.147 51.76 105.267 51.088C106.419 50.416 107.331 49.52 108.003 48.4C108.675 47.248 109.011 46 109.011 44.656C109.011 43.312 108.675 42.08 108.003 40.96C107.331 39.808 106.419 38.896 105.267 38.224C104.147 37.552 102.915 37.216 101.571 37.216C100.227 37.216 98.9794 37.552 97.8274 38.224C96.6754 38.896 95.7634 39.808 95.0914 40.96C94.4194 42.08 94.0834 43.312 94.0834 44.656C94.0834 46 94.4194 47.248 95.0914 48.4C95.7634 49.52 96.6754 50.416 97.8274 51.088C98.9794 51.76 100.227 52.096 101.571 52.096ZM137.874 58.096C135.442 58.096 133.186 57.488 131.106 56.272C129.058 55.056 127.426 53.424 126.21 51.376C124.994 49.296 124.386 47.04 124.386 44.608C124.386 42.176 124.994 39.936 126.21 37.888C127.426 35.808 129.058 34.16 131.106 32.944C133.186 31.728 135.442 31.12 137.874 31.12C140.018 31.12 142.034 31.6 143.922 32.56C145.842 33.52 147.442 34.848 148.722 36.544L143.922 40.144C143.186 39.184 142.29 38.448 141.234 37.936C140.21 37.392 139.09 37.12 137.874 37.12C136.53 37.12 135.282 37.456 134.13 38.128C132.978 38.8 132.066 39.712 131.394 40.864C130.722 42.016 130.386 43.264 130.386 44.608C130.386 45.952 130.722 47.2 131.394 48.352C132.066 49.504 132.978 50.416 134.13 51.088C135.282 51.76 136.53 52.096 137.874 52.096C139.09 52.096 140.21 51.84 141.234 51.328C142.29 50.784 143.17 50.032 143.874 49.072L148.674 52.672C147.426 54.368 145.842 55.696 143.922 56.656C142.002 57.616 139.986 58.096 137.874 58.096ZM158.406 31.168H164.358V58H158.406V31.168ZM187.326 58C184.894 58 182.638 57.392 180.558 56.176C178.51 54.96 176.878 53.328 175.662 51.28C174.446 49.2 173.838 46.944 173.838 44.512C173.838 42.08 174.446 39.84 175.662 37.792C176.878 35.712 178.51 34.064 180.558 32.848C182.638 31.632 184.894 31.024 187.326 31.024C189.47 31.024 191.486 31.504 193.374 32.464C195.294 33.424 196.894 34.752 198.174 36.448L193.374 40.048C192.67 39.088 191.79 38.352 190.734 37.84C189.678 37.296 188.542 37.024 187.326 37.024C185.982 37.024 184.734 37.36 183.582 38.032C182.43 38.704 181.518 39.616 180.846 40.768C180.174 41.92 179.838 43.168 179.838 44.512C179.838 45.856 180.174 47.104 180.846 48.256C181.518 49.408 182.43 50.32 183.582 50.992C184.734 51.664 185.982 52 187.326 52C189.214 52 190.862 51.392 192.27 50.176V48.976H187.47V42.976H198.27V57.952H192.27V57.04C190.702 57.68 189.054 58 187.326 58ZM215.427 47.344L206.115 31.168H212.979L218.403 40.576L223.827 31.168H230.691L221.379 47.344V58H215.427V47.344Z"
        fill="white" />
    <path
        d="M19.5188 21.4572C25.3888 21.4572 30.1473 16.6538 30.1473 10.7286C30.1473 4.80335 25.3888 0 19.5188 0C13.6489 0 8.89038 4.80335 8.89038 10.7286C8.89038 16.6538 13.6489 21.4572 19.5188 21.4572Z"
        fill="white" />
    <path
        d="M19.5188 89.0001C25.3888 89.0001 30.1473 84.1968 30.1473 78.2716C30.1473 72.3463 25.3888 67.543 19.5188 67.543C13.6489 67.543 8.89038 72.3463 8.89038 78.2716C8.89038 84.1968 13.6489 89.0001 19.5188 89.0001Z"
        fill="white" />
    <path
        d="M12.7809 59.8416C11.3771 61.2451 9.47872 62.0368 7.50009 62.0368C3.38685 62.0368 0 58.618 0 54.466C0 51.929 1.26116 49.5538 3.36011 48.1548L26.0342 29.995C27.5271 28.3936 29.6394 27.5209 31.8141 27.6153C35.9229 27.7908 39.1671 31.3445 38.9933 35.4965C38.8997 37.8041 37.7634 39.9408 35.914 41.2993L12.7809 59.8461V59.8416Z"
        fill="white" />
    <path
        d="M1.08727 39.0274C0.458923 37.8669 0.12915 36.5578 0.12915 35.2308C0.12915 30.9529 3.54274 27.4307 7.69608 27.4307C9.76385 27.4307 11.7469 28.3078 13.173 29.8508"
        fill="white" />
    <path
        d="M37.7367 49.7744C38.4453 50.8855 38.8686 52.1675 38.9667 53.4946C39.2742 57.7635 36.1235 61.5241 31.9835 61.83C29.9202 61.983 27.8792 61.2542 26.3462 59.8192"
        fill="white" />
    <path d="M173.5 71H207" stroke="white" stroke-width="4" />
</svg>
    