<svg width="204" height="54" viewBox="0 0 204 54" fill="none" xmlns="http://www.w3.org/2000/svg">
    <g clip-path="url(#clip0_110_1494)">
        <g filter="url(#filter0_d_110_1494)">
            <path
                d="M27.2833 53.7011L26.9835 41.6455C26.9835 41.6455 26.9004 37.394 31.2225 35.0536L40.4731 28.95C40.4731 28.95 45.0667 26.498 43.5173 18.4434L53.6082 33.0647C53.6082 33.0647 54.8293 36.0617 52.967 37.7308L27.2833 53.7011Z"
                fill="url(#paint0_linear_110_1494)" />
        </g>
        <g filter="url(#filter1_d_110_1494)">
            <path
                d="M43.5151 18.4434L31.6384 1.23545C31.6384 1.23545 30.1262 -0.749268 27.0274 0.311495L27.2834 10.6602C27.3469 16.0188 23.8257 17.9298 23.8257 17.9298L14.0258 24.0903C8.7735 26.9863 10.8416 35.845 10.8416 35.845L21.6482 51.5649C21.6482 51.5649 23.9066 55.0166 27.2856 53.7032L26.9858 41.6476C26.9858 41.6476 26.9114 37.3582 31.2248 35.0557L40.4754 28.9521C40.4754 28.9521 45.1587 26.2518 43.5195 18.4455L43.5151 18.4434Z"
                fill="url(#paint1_linear_110_1494)" />
        </g>
        <g filter="url(#filter2_d_110_1494)">
            <path
                d="M10.8406 35.8259L1.27708 21.916C1.27708 21.916 -1.59635 18.1297 1.27708 16.126L27.0264 0.294525L27.2824 10.6433C27.2824 10.6433 27.6764 15.1726 23.8247 17.9129L14.0248 24.0733C14.0248 24.0733 8.92571 26.239 10.8406 35.828V35.8259Z"
                fill="url(#paint2_linear_110_1494)" />
        </g>
        <path
            d="M10.8393 35.8428C10.8393 35.8428 10.7167 35.0557 10.8196 33.8392C11.1259 30.1981 13.1809 26.9021 16.3148 24.8395L23.4382 20.1545C24.9307 19.1716 26.0512 17.7467 26.6027 16.0882C26.9944 14.9117 27.2942 13.3753 27.2942 11.4305C27.2942 11.4305 26.9835 15.762 23.8211 17.9698L13.5114 24.4059C13.5114 24.4059 13.0321 24.728 12.4128 25.393C11.7934 26.0581 11.5133 26.7485 11.0647 27.7777C10.3053 29.5161 10.2353 32.1554 10.8415 35.8407L10.8393 35.8428Z"
            fill="url(#paint3_linear_110_1494)" />
        <path
            d="M26.9814 41.4792C26.9814 41.4792 25.9944 36.51 29.7082 33.9633L38.2279 28.2954C38.2279 28.2954 41.0838 26.2875 41.2961 25.3131C41.2961 25.3131 43.2 22.3097 42.8149 17.4436L43.4605 18.3655C43.478 18.3907 43.4933 18.4181 43.502 18.4497C43.6552 18.9506 44.9464 23.5093 42.0336 27.5104C42.0292 27.5167 42.0248 27.5209 42.0205 27.5272C41.992 27.5609 41.6375 28.1144 40.8584 28.6743C39.7357 29.4782 37.8361 30.6611 36.1554 31.7955C33.3345 33.7024 30.7171 35.5734 30.7171 35.5734C29.3668 36.3774 28.2617 37.5308 27.627 38.9304C27.3163 39.6165 27.0252 40.5952 26.9836 41.4771L26.9814 41.4792Z"
            fill="#C91F56" />
    </g>
    <path
        d="M91.2454 24.256C95.4454 24.256 97.9894 25.168 97.9894 28.768C97.9894 33.256 95.0374 34.384 91.2454 34.384H80.7334C75.8134 34.384 73.8694 32.464 73.8694 28.264H80.5894C80.6614 29.176 81.6454 29.2 82.4854 29.2C85.0534 29.2 89.5414 29.224 90.7174 29.224C91.3654 29.224 91.6054 28.96 91.6054 28.288C91.6054 27.856 91.3174 27.664 90.6694 27.664C87.3574 27.592 83.9254 27.496 80.6134 27.4C76.4134 27.4 73.8934 26.536 73.8934 22.936C73.8934 18.448 76.8454 17.32 80.6374 17.32H90.7894C95.6854 17.32 97.6294 19.24 97.6294 23.44H90.9094C90.8374 22.504 89.8774 22.48 89.0134 22.48C86.4454 22.48 82.3654 22.48 81.1654 22.48C80.5174 22.48 80.2774 22.72 80.2774 23.392C80.2774 23.824 80.5174 23.992 81.1654 23.992C84.4774 24.064 87.9094 24.16 91.2454 24.256ZM123.022 25.84C123.022 31.648 119.326 34.36 115.222 34.36C112.63 34.36 109.342 34.36 106.75 34.36C102.646 34.36 98.8303 31.648 98.8303 25.84C98.8303 20.056 102.646 17.344 106.75 17.344C109.342 17.344 112.63 17.344 115.222 17.344C119.326 17.344 123.022 20.056 123.022 25.84ZM108.142 29.416C109.918 29.416 111.838 29.416 113.83 29.416C115.654 29.416 116.902 28.768 116.902 25.84C116.902 22.936 115.654 22.264 113.83 22.264C111.838 22.264 110.158 22.264 108.142 22.264C106.318 22.264 104.974 22.936 104.974 25.84C104.974 28.768 106.078 29.416 108.142 29.416ZM124.096 25.84C124.096 20.056 128.152 17.344 132.256 17.344C134.848 17.344 137.44 17.344 140.032 17.344C143.8 17.344 147.52 19.672 148.096 24.496H141.568C141.136 23.344 140.2 22.504 138.88 22.504C136.864 22.504 135.424 22.504 133.408 22.504C131.584 22.504 130.48 23.44 130.48 25.84C130.48 28.264 131.584 29.176 133.408 29.176C135.424 29.176 136.864 29.176 138.88 29.176C140.2 29.176 141.136 28.36 141.568 27.184H148.096C147.52 32.008 143.8 34.36 140.032 34.36C137.44 34.36 134.848 34.36 132.256 34.36C128.152 34.36 124.096 31.648 124.096 25.84ZM149.414 34V17.68H156.446V34H149.414ZM157.776 25.84C157.776 20.056 161.832 17.344 165.936 17.344C168.504 17.344 170.664 17.344 173.232 17.344C178.032 17.344 180.888 19.672 181.296 23.464H175.248C174.984 22.888 174.672 22.504 172.536 22.504C170.52 22.504 169.104 22.504 167.088 22.504C165.264 22.504 164.136 23.656 164.136 25.84C164.136 28.048 165.264 29.176 167.088 29.176C169.104 29.176 169.656 29.176 171.672 29.176C172.536 29.176 174.168 28.888 174.84 27.928H169.608V24.472H181.32V34H176.88L176.232 32.2C175.44 33.448 173.664 34.36 171.048 34.36C168.48 34.36 168.504 34.36 165.936 34.36C161.832 34.36 157.776 31.888 157.776 25.84ZM188.479 34V27.76L180.007 17.68H187.975L192.007 22.648L196.039 17.68H204.007L195.535 27.76V34H188.479Z"
        fill="white" />
    <defs>
        <filter id="filter0_d_110_1494" x="22.9834" y="18.4434" width="35.0178" height="43.2578"
            filterUnits="userSpaceOnUse" color-interpolation-filters="sRGB">
            <feFlood flood-opacity="0" result="BackgroundImageFix" />
            <feColorMatrix in="SourceAlpha" type="matrix"
                values="0 0 0 0 0 0 0 0 0 0 0 0 0 0 0 0 0 0 127 0" result="hardAlpha" />
            <feOffset dy="4" />
            <feGaussianBlur stdDeviation="2" />
            <feComposite in2="hardAlpha" operator="out" />
            <feColorMatrix type="matrix" values="0 0 0 0 0 0 0 0 0 0 0 0 0 0 0 0 0 0 0.25 0" />
            <feBlend mode="normal" in2="BackgroundImageFix" result="effect1_dropShadow_110_1494" />
            <feBlend mode="normal" in="SourceGraphic" in2="effect1_dropShadow_110_1494"
                result="shape" />
        </filter>
        <filter id="filter1_d_110_1494" x="6.44019" y="-0.000457764" width="41.4272"
            height="62.0018" filterUnits="userSpaceOnUse" color-interpolation-filters="sRGB">
            <feFlood flood-opacity="0" result="BackgroundImageFix" />
            <feColorMatrix in="SourceAlpha" type="matrix"
                values="0 0 0 0 0 0 0 0 0 0 0 0 0 0 0 0 0 0 127 0" result="hardAlpha" />
            <feOffset dy="4" />
            <feGaussianBlur stdDeviation="2" />
            <feComposite in2="hardAlpha" operator="out" />
            <feColorMatrix type="matrix" values="0 0 0 0 0 0 0 0 0 0 0 0 0 0 0 0 0 0 0.25 0" />
            <feBlend mode="normal" in2="BackgroundImageFix" result="effect1_dropShadow_110_1494" />
            <feBlend mode="normal" in="SourceGraphic" in2="effect1_dropShadow_110_1494"
                result="shape" />
        </filter>
        <filter id="filter2_d_110_1494" x="-4" y="0.294525" width="35.2937" height="43.5335"
            filterUnits="userSpaceOnUse" color-interpolation-filters="sRGB">
            <feFlood flood-opacity="0" result="BackgroundImageFix" />
            <feColorMatrix in="SourceAlpha" type="matrix"
                values="0 0 0 0 0 0 0 0 0 0 0 0 0 0 0 0 0 0 127 0" result="hardAlpha" />
            <feOffset dy="4" />
            <feGaussianBlur stdDeviation="2" />
            <feComposite in2="hardAlpha" operator="out" />
            <feColorMatrix type="matrix" values="0 0 0 0 0 0 0 0 0 0 0 0 0 0 0 0 0 0 0.25 0" />
            <feBlend mode="normal" in2="BackgroundImageFix" result="effect1_dropShadow_110_1494" />
            <feBlend mode="normal" in="SourceGraphic" in2="effect1_dropShadow_110_1494"
                result="shape" />
        </filter>
        <linearGradient id="paint0_linear_110_1494" x1="40.4906" y1="41.3634" x2="40.4906"
            y2="12.203" gradientUnits="userSpaceOnUse">
            <stop offset="0.07" stop-color="#892870" />
            <stop offset="0.39" stop-color="#AA2867" />
            <stop offset="0.79" stop-color="#CD295F" />
            <stop offset="1" stop-color="#DB2A5C" />
        </linearGradient>
        <linearGradient id="paint1_linear_110_1494" x1="31.5728" y1="34.4643" x2="19.2554"
            y2="12.2833" gradientUnits="userSpaceOnUse">
            <stop stop-color="#D92159" />
            <stop offset="0.32" stop-color="#E23F48" />
            <stop offset="0.76" stop-color="#EE6234" />
            <stop offset="1" stop-color="#F3702D" />
        </linearGradient>
        <linearGradient id="paint2_linear_110_1494" x1="0.00121581" y1="18.0602" x2="27.2956"
            y2="18.0602" gradientUnits="userSpaceOnUse">
            <stop stop-color="#FDC01B" />
            <stop offset="1" stop-color="#F68734" />
        </linearGradient>
        <linearGradient id="paint3_linear_110_1494" x1="14.2117" y1="29.6424" x2="23.8452"
            y2="12.2919" gradientUnits="userSpaceOnUse">
            <stop stop-color="#DC2729" />
            <stop offset="1" stop-color="#EA3133" />
        </linearGradient>
        <clipPath id="clip0_110_1494">
            <rect width="54" height="54" fill="white" />
        </clipPath>
    </defs>
</svg>
    