<svg width="108" height="28" viewBox="0 0 108 28" fill="none" xmlns="http://www.w3.org/2000/svg">
    <path
        d="M9.87182 17C8.78742 17 7.71236 16.8504 6.64665 16.5513C5.59964 16.2334 4.67416 15.7847 3.8702 15.2051L5.91748 12.3726C6.44099 12.7465 7.04863 13.0363 7.74041 13.242C8.45088 13.4289 9.16135 13.5224 9.87182 13.5224C10.7693 13.5224 11.4984 13.3822 12.0593 13.1018C12.4146 12.9148 12.5922 12.7091 12.5922 12.4848C12.5922 12.0921 12.5361 11.8117 12.4239 11.6434C12.3304 11.4564 12.0874 11.3069 11.6947 11.1947C11.3208 11.0825 10.6758 10.9797 9.75964 10.8862C8.54436 10.7553 7.47865 10.5403 6.56252 10.2412C5.66508 9.92333 4.96396 9.32503 4.45915 8.44629C4.02912 7.73582 3.81411 6.85708 3.81411 5.81007C3.83281 5.0435 4.04782 4.34238 4.45915 3.7067C4.88917 3.07101 5.47811 2.55685 6.22598 2.16422C7.25429 1.62202 8.50697 1.35092 9.984 1.35092C11.0684 1.35092 12.1341 1.50984 13.1811 1.82768C14.2468 2.12683 15.191 2.55685 16.0137 3.11775L13.9944 5.95029C13.4709 5.57636 12.8539 5.29591 12.1435 5.10894C11.4517 4.90328 10.7506 4.80045 10.0401 4.80045C9.16135 4.80045 8.42283 4.95002 7.82454 5.24917C7.4693 5.43613 7.29169 5.63245 7.29169 5.83811C7.29169 6.26813 7.34778 6.55793 7.45996 6.7075C7.59083 6.89447 7.85258 7.0347 8.24521 7.12818C8.63784 7.22166 9.26418 7.31515 10.1242 7.40863C11.1712 7.52081 12.0967 7.69843 12.9007 7.94148C13.7233 8.18454 14.4525 8.67065 15.0882 9.39982C15.7426 10.1103 16.0698 11.1386 16.0698 12.4848C16.0698 13.27 15.8547 13.9898 15.4247 14.6442C15.0134 15.2799 14.4151 15.7941 13.6298 16.1867C12.6015 16.7289 11.3489 17 9.87182 17ZM29.5473 17.028C28.1264 17.028 26.8176 16.6822 25.621 15.9904C24.4244 15.2799 23.4709 14.3264 22.7604 13.1298C22.05 11.9332 21.6947 10.6244 21.6947 9.2035C21.6947 7.78256 22.05 6.4738 22.7604 5.27721C23.4709 4.08063 24.4244 3.13645 25.621 2.44467C26.8176 1.7342 28.1264 1.37896 29.5473 1.37896C30.9683 1.37896 32.277 1.7342 33.4736 2.44467C34.6702 3.13645 35.6144 4.08063 36.3062 5.27721C37.0166 6.4738 37.3719 7.78256 37.3719 9.2035C37.3719 10.6244 37.0166 11.9332 36.3062 13.1298C35.6144 14.3264 34.6702 15.2799 33.4736 15.9904C32.277 16.6822 30.9683 17.028 29.5473 17.028ZM29.5473 13.5505C30.3326 13.5505 31.0524 13.3542 31.7068 12.9615C32.3799 12.5689 32.9127 12.0454 33.3053 11.391C33.698 10.7179 33.8943 9.98876 33.8943 9.2035C33.8943 8.41825 33.698 7.69843 33.3053 7.04404C32.9127 6.37097 32.3799 5.83811 31.7068 5.44548C31.0524 5.05285 30.3326 4.85654 29.5473 4.85654C28.7621 4.85654 28.0329 5.05285 27.3598 5.44548C26.6867 5.83811 26.1539 6.37097 25.7613 7.04404C25.3686 7.69843 25.1723 8.41825 25.1723 9.2035C25.1723 9.98876 25.3686 10.7179 25.7613 11.391C26.1539 12.0454 26.6867 12.5689 27.3598 12.9615C28.0329 13.3542 28.7621 13.5505 29.5473 13.5505ZM50.7576 17.0561C49.3367 17.0561 48.0186 16.7009 46.8033 15.9904C45.6067 15.2799 44.6532 14.3264 43.9427 13.1298C43.2322 11.9145 42.877 10.5964 42.877 9.17546C42.877 7.75452 43.2322 6.44575 43.9427 5.24917C44.6532 4.03389 45.6067 3.07101 46.8033 2.36054C48.0186 1.65007 49.3367 1.29483 50.7576 1.29483C52.0103 1.29483 53.1882 1.57528 54.2913 2.13618C55.4131 2.69708 56.3479 3.47299 57.0958 4.46391L54.2913 6.56728C53.8613 6.00638 53.3378 5.57636 52.7208 5.27721C52.1225 4.95937 51.4681 4.80045 50.7576 4.80045C49.9724 4.80045 49.2432 4.99676 48.5701 5.38939C47.897 5.78202 47.3642 6.31488 46.9716 6.98795C46.5789 7.66103 46.3826 8.3902 46.3826 9.17546C46.3826 9.96072 46.5789 10.6899 46.9716 11.363C47.3642 12.036 47.897 12.5689 48.5701 12.9615C49.2432 13.3542 49.9724 13.5505 50.7576 13.5505C51.4681 13.5505 52.1225 13.4009 52.7208 13.1018C53.3378 12.7839 53.8519 12.3445 54.2632 11.7836L57.0677 13.887C56.3386 14.8779 55.4131 15.6538 54.2913 16.2147C53.1695 16.7756 51.9916 17.0561 50.7576 17.0561ZM62.7539 1.32288H66.2314V17H62.7539V1.32288ZM79.6514 17C78.2304 17 76.9123 16.6448 75.697 15.9343C74.5004 15.2238 73.5469 14.2703 72.8364 13.0737C72.126 11.8584 71.7707 10.5403 71.7707 9.11937C71.7707 7.69843 72.126 6.38966 72.8364 5.19308C73.5469 3.9778 74.5004 3.01492 75.697 2.30445C76.9123 1.59398 78.2304 1.23874 79.6514 1.23874C80.904 1.23874 82.0819 1.51919 83.185 2.08009C84.3068 2.64099 85.2417 3.4169 85.9895 4.40782L83.185 6.51119C82.7737 5.95029 82.2596 5.52027 81.6426 5.22112C81.0256 4.90328 80.3618 4.74436 79.6514 4.74436C78.8661 4.74436 78.1369 4.94067 77.4639 5.3333C76.7908 5.72593 76.2579 6.25879 75.8653 6.93186C75.4727 7.60494 75.2764 8.33411 75.2764 9.11937C75.2764 9.90463 75.4727 10.6338 75.8653 11.3069C76.2579 11.98 76.7908 12.5128 77.4639 12.9054C78.1369 13.2981 78.8661 13.4944 79.6514 13.4944C80.7545 13.4944 81.7173 13.1391 82.54 12.4287V11.7276H79.7355V8.22193H86.0456V16.972H82.54V16.4391C81.6239 16.813 80.661 17 79.6514 17ZM96.0697 10.774L90.629 1.32288H94.6394L97.8085 6.81968L100.978 1.32288H104.988L99.5473 10.774V17H96.0697V10.774Z"
        fill="white" />
    <path d="M71.573 26.3146H91.146" stroke="white" stroke-width="2.33708" />
</svg>
    